<?xml version="1.0" encoding="utf-8"?>
<!-- Generator: Adobe Illustrator 21.1.0, SVG Export Plug-In . SVG Version: 6.00 Build 0)  -->
<svg version="1.1" id="Layer_1" xmlns="http://www.w3.org/2000/svg" xmlns:xlink="http://www.w3.org/1999/xlink" x="0px" y="0px"
	 viewBox="0 0 216 216" style="enable-background:new 0 0 216 216;" xml:space="preserve">
<style type="text/css">
	.st0{fill:none;}
	.st1{fill:#FDE3E2;}
	.st2{fill:#B3E0DC;}
	.st3{fill:#6C4F70;}
	.st4{fill:url(#SVGID_3_);}
	.st5{fill:#24A69A;}
	.st6{fill:#FFFFFF;stroke:#007A6C;stroke-width:0.4974;stroke-miterlimit:10;}
	.st7{fill:url(#SVGID_4_);}
	.st8{fill:#FFFFFF;}
	.st9{fill:#F0F9F8;}
	.st10{fill:#D9EFEF;}
	.st11{fill:none;stroke:url(#SVGID_5_);stroke-width:3.7254;stroke-miterlimit:10;}
	.st12{fill:none;stroke:url(#SVGID_6_);stroke-width:3.7254;stroke-miterlimit:10;}
	.st13{fill:none;stroke:url(#SVGID_7_);stroke-width:3.7254;stroke-miterlimit:10;}
	.st14{fill:none;stroke:url(#SVGID_8_);stroke-width:3.7254;stroke-miterlimit:10;}
	.st15{fill:none;stroke:url(#SVGID_9_);stroke-width:3.7254;stroke-miterlimit:10;}
	.st16{fill:none;stroke:url(#SVGID_10_);stroke-width:3.7254;stroke-miterlimit:10;}
	.st17{fill:none;stroke:url(#SVGID_11_);stroke-width:3.7254;stroke-miterlimit:10;}
	.st18{fill:none;stroke:url(#SVGID_12_);stroke-width:3.7254;stroke-miterlimit:10;}
	.st19{fill:none;stroke:url(#SVGID_13_);stroke-width:3.7254;stroke-miterlimit:10;}
	.st20{fill:none;stroke:url(#SVGID_14_);stroke-width:3.7254;stroke-miterlimit:10;}
	.st21{fill:none;stroke:url(#SVGID_15_);stroke-width:3.7254;stroke-miterlimit:10;}
	.st22{fill:none;stroke:url(#SVGID_16_);stroke-width:3.7254;stroke-miterlimit:10;}
	.st23{fill:none;stroke:url(#SVGID_17_);stroke-width:3.7254;stroke-miterlimit:10;}
	.st24{fill:none;stroke:url(#SVGID_18_);stroke-width:3.7254;stroke-miterlimit:10;}
	.st25{fill:none;stroke:url(#SVGID_19_);stroke-width:3.7254;stroke-miterlimit:10;}
	.st26{fill:none;stroke:url(#SVGID_20_);stroke-width:3.7254;stroke-miterlimit:10;}
	.st27{fill:none;stroke:url(#SVGID_21_);stroke-width:3.7254;stroke-miterlimit:10;}
</style>
<pattern  y="216" width="57" height="57" patternUnits="userSpaceOnUse" id="SVGID_1_" viewBox="0 -57 57 57" style="overflow:visible;">
	<g>
		<rect y="-57" class="st0" width="57" height="57"/>
		<g>
			<rect y="-57" class="st0" width="57" height="57"/>
			<g>
				<rect y="-57" class="st0" width="57" height="57"/>
				<rect y="-57" class="st1" width="57" height="57"/>
			</g>
		</g>
	</g>
</pattern>
<pattern  y="216" width="57" height="57" patternUnits="userSpaceOnUse" id="SVGID_24_" viewBox="0 -57 57 57" style="overflow:visible;">
	<g>
		<rect y="-57" class="st0" width="57" height="57"/>
		<g>
			<rect y="-57" class="st0" width="57" height="57"/>
			<g>
				<rect y="-57" class="st0" width="57" height="57"/>
				<rect y="-57" class="st2" width="57" height="57"/>
			</g>
		</g>
	</g>
</pattern>
<pattern  y="216" width="57" height="57" patternUnits="userSpaceOnUse" id="SVGID_35_" viewBox="0 -57 57 57" style="overflow:visible;">
	<g>
		<rect y="-57" class="st0" width="57" height="57"/>
		<g>
			<rect y="-57" class="st0" width="57" height="57"/>
			<g>
				<rect y="-57" class="st0" width="57" height="57"/>
				<rect y="-57" class="st3" width="57" height="57"/>
			</g>
		</g>
	</g>
</pattern>
<pattern  y="216" width="57" height="57" patternUnits="userSpaceOnUse" id="SVGID_40_" viewBox="0 -57 57 57" style="overflow:visible;">
	<g>
		<rect y="-57" class="st0" width="57" height="57"/>
		<g>
			<rect y="-57" class="st0" width="57" height="57"/>
			<g>
				<rect y="-57" class="st0" width="57" height="57"/>
				<rect y="-57" class="st3" width="57" height="57"/>
			</g>
		</g>
	</g>
</pattern>
<pattern  y="216" width="57" height="57" patternUnits="userSpaceOnUse" id="SVGID_43_" viewBox="0 -57 57 57" style="overflow:visible;">
	<g>
		<rect y="-57" class="st0" width="57" height="57"/>
		<g>
			<rect y="-57" class="st0" width="57" height="57"/>
			<g>
				<rect y="-57" class="st0" width="57" height="57"/>
				<rect y="-57" class="st3" width="57" height="57"/>
			</g>
		</g>
	</g>
</pattern>
<pattern  y="216" width="57" height="57" patternUnits="userSpaceOnUse" id="SVGID_46_" viewBox="0 -57 57 57" style="overflow:visible;">
	<g>
		<rect y="-57" class="st0" width="57" height="57"/>
		<g>
			<rect y="-57" class="st0" width="57" height="57"/>
			<g>
				<rect y="-57" class="st0" width="57" height="57"/>
				<rect y="-57" class="st3" width="57" height="57"/>
			</g>
		</g>
	</g>
</pattern>
<pattern  y="216" width="57" height="57" patternUnits="userSpaceOnUse" id="SVGID_49_" viewBox="0 -57 57 57" style="overflow:visible;">
	<g>
		<rect y="-57" class="st0" width="57" height="57"/>
		<g>
			<rect y="-57" class="st0" width="57" height="57"/>
			<g>
				<rect y="-57" class="st0" width="57" height="57"/>
				<rect y="-57" class="st3" width="57" height="57"/>
			</g>
		</g>
	</g>
</pattern>
<pattern  y="216" width="57" height="57" patternUnits="userSpaceOnUse" id="SVGID_52_" viewBox="0 -57 57 57" style="overflow:visible;">
	<g>
		<rect y="-57" class="st0" width="57" height="57"/>
		<g>
			<rect y="-57" class="st0" width="57" height="57"/>
			<g>
				<rect y="-57" class="st0" width="57" height="57"/>
				<rect y="-57" class="st3" width="57" height="57"/>
			</g>
		</g>
	</g>
</pattern>
<pattern  y="216" width="57" height="57" patternUnits="userSpaceOnUse" id="SVGID_55_" viewBox="0 -57 57 57" style="overflow:visible;">
	<g>
		<rect y="-57" class="st0" width="57" height="57"/>
		<g>
			<rect y="-57" class="st0" width="57" height="57"/>
			<g>
				<rect y="-57" class="st0" width="57" height="57"/>
				<rect y="-57" class="st3" width="57" height="57"/>
			</g>
		</g>
	</g>
</pattern>
<pattern  y="216" width="57" height="57" patternUnits="userSpaceOnUse" id="SVGID_58_" viewBox="0 -57 57 57" style="overflow:visible;">
	<g>
		<rect y="-57" class="st0" width="57" height="57"/>
		<g>
			<rect y="-57" class="st0" width="57" height="57"/>
			<g>
				<rect y="-57" class="st0" width="57" height="57"/>
				<rect y="-57" class="st3" width="57" height="57"/>
			</g>
		</g>
	</g>
</pattern>
<pattern  y="216" width="57" height="57" patternUnits="userSpaceOnUse" id="SVGID_61_" viewBox="0 -57 57 57" style="overflow:visible;">
	<g>
		<rect y="-57" class="st0" width="57" height="57"/>
		<g>
			<rect y="-57" class="st0" width="57" height="57"/>
			<g>
				<rect y="-57" class="st0" width="57" height="57"/>
				<rect y="-57" class="st3" width="57" height="57"/>
			</g>
		</g>
	</g>
</pattern>
<pattern  y="216" width="57" height="57" patternUnits="userSpaceOnUse" id="SVGID_64_" viewBox="0 -57 57 57" style="overflow:visible;">
	<g>
		<rect y="-57" class="st0" width="57" height="57"/>
		<g>
			<rect y="-57" class="st0" width="57" height="57"/>
			<g>
				<rect y="-57" class="st0" width="57" height="57"/>
				<rect y="-57" class="st3" width="57" height="57"/>
			</g>
		</g>
	</g>
</pattern>
<pattern  y="216" width="57" height="57" patternUnits="userSpaceOnUse" id="SVGID_67_" viewBox="0 -57 57 57" style="overflow:visible;">
	<g>
		<rect y="-57" class="st0" width="57" height="57"/>
		<g>
			<rect y="-57" class="st0" width="57" height="57"/>
			<g>
				<rect y="-57" class="st0" width="57" height="57"/>
				<rect y="-57" class="st3" width="57" height="57"/>
			</g>
		</g>
	</g>
</pattern>
<pattern  y="216" width="57" height="57" patternUnits="userSpaceOnUse" id="SVGID_70_" viewBox="0 -57 57 57" style="overflow:visible;">
	<g>
		<rect y="-57" class="st0" width="57" height="57"/>
		<g>
			<rect y="-57" class="st0" width="57" height="57"/>
			<g>
				<rect y="-57" class="st0" width="57" height="57"/>
				<rect y="-57" class="st3" width="57" height="57"/>
			</g>
		</g>
	</g>
</pattern>
<pattern  y="216" width="57" height="57" patternUnits="userSpaceOnUse" id="SVGID_73_" viewBox="0 -57 57 57" style="overflow:visible;">
	<g>
		<rect y="-57" class="st0" width="57" height="57"/>
		<g>
			<rect y="-57" class="st0" width="57" height="57"/>
			<g>
				<rect y="-57" class="st0" width="57" height="57"/>
				<rect y="-57" class="st3" width="57" height="57"/>
			</g>
		</g>
	</g>
</pattern>
<pattern  y="216" width="57" height="57" patternUnits="userSpaceOnUse" id="SVGID_76_" viewBox="0 -57 57 57" style="overflow:visible;">
	<g>
		<rect y="-57" class="st0" width="57" height="57"/>
		<g>
			<rect y="-57" class="st0" width="57" height="57"/>
			<g>
				<rect y="-57" class="st0" width="57" height="57"/>
				<rect y="-57" class="st3" width="57" height="57"/>
			</g>
		</g>
	</g>
</pattern>
<pattern  y="216" width="57" height="57" patternUnits="userSpaceOnUse" id="SVGID_79_" viewBox="0 -57 57 57" style="overflow:visible;">
	<g>
		<rect y="-57" class="st0" width="57" height="57"/>
		<g>
			<rect y="-57" class="st0" width="57" height="57"/>
			<g>
				<rect y="-57" class="st0" width="57" height="57"/>
				<rect y="-57" class="st3" width="57" height="57"/>
			</g>
		</g>
	</g>
</pattern>
<pattern  y="216" width="57" height="57" patternUnits="userSpaceOnUse" id="SVGID_82_" viewBox="0 -57 57 57" style="overflow:visible;">
	<g>
		<rect y="-57" class="st0" width="57" height="57"/>
		<g>
			<rect y="-57" class="st0" width="57" height="57"/>
			<g>
				<rect y="-57" class="st0" width="57" height="57"/>
				<rect y="-57" class="st3" width="57" height="57"/>
			</g>
		</g>
	</g>
</pattern>
<g id="Layer_2">
	<pattern  id="SVGID_3_" xlink:href="#SVGID_1_" patternTransform="matrix(3.6001 0 0 -3.6001 59797.793 -38597.1602)">
	</pattern>
	<path class="st4" d="M201.6,102.4c0,51.7-41.9,93.6-93.6,93.6s-93.6-41.9-93.6-93.6S56.3,8.8,108,8.8
		C159.7,8.7,201.6,50.7,201.6,102.4"/>
</g>
<g id="Layer_3">
	<path class="st5" d="M202.5,103c0,52.2-42.3,94.5-94.5,94.5S13.5,155.2,13.5,103S55.8,8.5,108,8.5S202.5,50.8,202.5,103"/>
	<polygon class="st6" points="171.6,88.6 122.9,88.6 122.9,39.9 93.1,39.9 93.1,88.6 44.4,88.6 44.4,118.4 93.1,118.4 93.1,167.1 
		122.9,167.1 122.9,118.4 171.6,118.4 	"/>
</g>
<g id="Layer_1_1_">
	<g id="consents">
		<g>
			<g>
				<pattern  id="SVGID_4_" xlink:href="#SVGID_24_" patternTransform="matrix(1.8628 0 0 -1.8628 22248.1523 -20535.418)">
				</pattern>
				<path class="st7" d="M20.2,181.6c-4.2,0-9.3-5.2-9.3-9.3v-14.9c0-7.8,7.3-13.1,13.1-13.1h13c5.8,0,11.2,5.3,11.2,13.1v11.2v5.6
					c0,4.2-1.4,7.5-5.6,7.5v31.6H20.2V181.6z"/>
			</g>
			<g>
				<path class="st8" d="M31.4,138.8c5,0,9.3-4,9.3-9.3v-3.7c0-5.3-4.3-9.3-9.3-9.3s-9.3,4-9.3,9.3v3.7
					C22.1,134.7,26.4,138.8,31.4,138.8"/>
			</g>
			<g>
				<path class="st9" d="M98.5,181.6c3.7,0,9.3-5.2,9.3-9.3v-14.9c0-7.8-7.3-13.1-13.1-13.1h-13c-5.8,0-11.2,5.3-11.2,13.1v11.2v5.6
					c0,4.2,1.9,7.5,5.6,7.5v31.6h22.4V181.6z"/>
			</g>
			<g>
				<path class="st8" d="M87.3,138.8c-5,0-9.3-4-9.3-9.3v-3.7c0-5.3,4.3-9.3,9.3-9.3s9.3,4,9.3,9.3v3.7
					C96.6,134.7,92.3,138.8,87.3,138.8"/>
			</g>
			<g>
				<path class="st10" d="M31.4,138.8c5,0,9.3-4,9.3-9.3v-3.7c0-5.3-4.3-9.3-9.3-9.3s-9.3,4-9.3,9.3v3.7
					C22.1,134.7,26.4,138.8,31.4,138.8"/>
			</g>
			<g>
				<pattern  id="SVGID_5_" xlink:href="#SVGID_35_" patternTransform="matrix(1.8628 0 0 -1.8628 22248.1523 -20535.418)">
				</pattern>
				<path class="st11" d="M31.4,138.8c5,0,9.3-4,9.3-9.3v-3.7c0-5.3-4.3-9.3-9.3-9.3s-9.3,4-9.3,9.3v3.7
					C22.1,134.7,26.4,138.8,31.4,138.8z"/>
			</g>
			<g>
				<path class="st9" d="M87.3,138.8c-5,0-9.3-4-9.3-9.3v-3.7c0-5.3,4.3-9.3,9.3-9.3s9.3,4,9.3,9.3v3.7
					C96.6,134.7,92.3,138.8,87.3,138.8"/>
			</g>
			<g>
				<pattern  id="SVGID_6_" xlink:href="#SVGID_40_" patternTransform="matrix(1.8628 0 0 -1.8628 22248.1523 -20535.418)">
				</pattern>
				<path class="st12" d="M87.3,138.8c-5,0-9.3-4-9.3-9.3v-3.7c0-5.3,4.3-9.3,9.3-9.3s9.3,4,9.3,9.3v3.7
					C96.6,134.7,92.3,138.8,87.3,138.8z"/>
			</g>
			<g>
				<pattern  id="SVGID_7_" xlink:href="#SVGID_43_" patternTransform="matrix(1.8628 0 0 -1.8628 22248.1523 -20535.418)">
				</pattern>
				<line class="st13" x1="20.2" y1="213.3" x2="20.2" y2="157.4"/>
			</g>
			<g>
				<pattern  id="SVGID_8_" xlink:href="#SVGID_46_" patternTransform="matrix(1.8628 0 0 -1.8628 22248.1523 -20535.418)">
				</pattern>
				<path class="st14" d="M48.2,168.6v5.6c0,4.2-1.4,7.5-5.6,7.5v31.6"/>
			</g>
			<g>
				<pattern  id="SVGID_9_" xlink:href="#SVGID_49_" patternTransform="matrix(1.8628 0 0 -1.8628 22248.1523 -20535.418)">
				</pattern>
				<line class="st15" x1="31.4" y1="181.6" x2="31.4" y2="213.3"/>
			</g>
			<g>
				<pattern  id="SVGID_10_" xlink:href="#SVGID_52_" patternTransform="matrix(1.8628 0 0 -1.8628 22248.1523 -20535.418)">
				</pattern>
				<line class="st16" x1="50" y1="163" x2="31.4" y2="163"/>
			</g>
			<g>
				<pattern  id="SVGID_11_" xlink:href="#SVGID_55_" patternTransform="matrix(1.8628 0 0 -1.8628 22248.1523 -20535.418)">
				</pattern>
				<line class="st17" x1="57.5" y1="163" x2="53.8" y2="163"/>
			</g>
			<g>
				<pattern  id="SVGID_12_" xlink:href="#SVGID_58_" patternTransform="matrix(1.8628 0 0 -1.8628 22248.1523 -20535.418)">
				</pattern>
				<polyline class="st18" points="38.8,172.7 29.2,163 38.8,153.3 				"/>
			</g>
			<g>
				<pattern  id="SVGID_13_" xlink:href="#SVGID_61_" patternTransform="matrix(1.8628 0 0 -1.8628 22248.1523 -20535.418)">
				</pattern>
				<line class="st19" x1="61.2" y1="163" x2="64.9" y2="163"/>
			</g>
			<g>
				<pattern  id="SVGID_14_" xlink:href="#SVGID_64_" patternTransform="matrix(1.8628 0 0 -1.8628 22248.1523 -20535.418)">
				</pattern>
				<path class="st20" d="M48.2,157.4c0-7.8-5.4-13.1-11.2-13.1H24c-5.8,0-13.1,5.3-13.1,13.1v14.9c0,4.2,5.2,9.3,9.3,9.3"/>
			</g>
			<g>
				<pattern  id="SVGID_15_" xlink:href="#SVGID_67_" patternTransform="matrix(1.8628 0 0 -1.8628 22248.1523 -20535.418)">
				</pattern>
				<line class="st21" x1="98.5" y1="213.3" x2="98.5" y2="157.4"/>
			</g>
			<g>
				<pattern  id="SVGID_16_" xlink:href="#SVGID_70_" patternTransform="matrix(1.8628 0 0 -1.8628 22248.1523 -20535.418)">
				</pattern>
				<path class="st22" d="M70.5,168.6v5.6c0,4.2,1.9,7.5,5.6,7.5v31.6"/>
			</g>
			<g>
				<g>
					<pattern  id="SVGID_17_" xlink:href="#SVGID_73_" patternTransform="matrix(1.8628 0 0 -1.8628 22248.1523 -20535.418)">
					</pattern>
					<line class="st23" x1="87.3" y1="181.6" x2="87.3" y2="213.3"/>
				</g>
			</g>
			<g>
				<g>
					<g>
						<pattern  id="SVGID_18_" xlink:href="#SVGID_76_" patternTransform="matrix(1.8628 0 0 -1.8628 22248.1523 -20535.418)">
						</pattern>
						<line class="st24" x1="68.7" y1="163" x2="87.3" y2="163"/>
					</g>
				</g>
				<g>
					<g>
						<pattern  id="SVGID_19_" xlink:href="#SVGID_76_" patternTransform="matrix(1.8628 0 0 -1.8628 22248.1523 -20535.418)">
						</pattern>
						<line class="st25" x1="68.7" y1="163" x2="87.3" y2="163"/>
					</g>
				</g>
			</g>
			<g>
				<g>
					<pattern  id="SVGID_20_" xlink:href="#SVGID_79_" patternTransform="matrix(1.8628 0 0 -1.8628 22248.1523 -20535.418)">
					</pattern>
					<polyline class="st26" points="79.9,172.7 89.6,163 79.9,153.3 					"/>
				</g>
			</g>
			<g>
				<pattern  id="SVGID_21_" xlink:href="#SVGID_82_" patternTransform="matrix(1.8628 0 0 -1.8628 22248.1523 -20535.418)">
				</pattern>
				<path class="st27" d="M70.5,157.4c0-7.8,5.4-13.1,11.2-13.1h13.1c5.8,0,13.1,5.3,13.1,13.1v14.9c0,4.2-5.2,9.3-9.3,9.3"/>
			</g>
		</g>
		<rect x="3" y="93.8" class="st0" width="112.6" height="119.4"/>
	</g>
</g>
</svg>
