<?xml version="1.0" encoding="utf-8"?>
<!-- Generator: Adobe Illustrator 21.0.2, SVG Export Plug-In . SVG Version: 6.00 Build 0)  -->
<svg version="1.1" id="Layer_1" xmlns="http://www.w3.org/2000/svg" xmlns:xlink="http://www.w3.org/1999/xlink" x="0px" y="0px"
	 viewBox="0 0 1280 560" style="enable-background:new 0 0 1280 560;" xml:space="preserve">
<style type="text/css">
	.st0{fill:none;}
	.st1{fill:#B2DFDB;}
	.st2{fill:#D4FFF8;}
	.st3{fill:url(#);}
	.st4{fill:none;stroke:url(#);stroke-width:2.3518;}
	.st5{fill:none;stroke:url(#);stroke-width:2.3518;stroke-linejoin:bevel;}
	.st6{opacity:0.4;}
	.st7{fill:none;stroke:#D4FFF8;stroke-width:2.5668;}
	.st8{fill:none;stroke:#D4FFF8;stroke-width:2.4352;}
	.st9{fill:none;stroke:#D4FFF8;stroke-width:2.4352;stroke-linecap:round;stroke-dasharray:0,4.9778;}
	.st10{opacity:0.33;}
	.st11{opacity:0.4;fill:#D4FFF8;enable-background:new    ;}
	.st12{opacity:0.3;fill:#D4FFF8;}
	.st13{opacity:0.4;fill:none;stroke:#D4FFF8;}
	.st14{fill:none;stroke:#D4FFF8;stroke-width:1.7495;stroke-linejoin:round;}
	.st15{fill:none;stroke:#D4FFF8;stroke-width:1.7495;}
	.st16{fill:none;stroke:#D4FFF8;stroke-width:2;stroke-miterlimit:10;}
	.st17{fill:#FFFFFF;stroke:#D4FFF8;stroke-miterlimit:10;}
	.st18{fill:none;stroke:#D4FFF8;stroke-width:2;stroke-linecap:round;stroke-miterlimit:10;}
	.st19{fill:#FFFFFF;stroke:#000000;stroke-miterlimit:10;}
	.st20{fill:none;stroke:#D4FFF8;stroke-miterlimit:10;}
	.st21{opacity:0.3;}
	.st22{fill:url(#SVGID_1_);stroke:#D4FFF8;stroke-miterlimit:10;}
	.st23{fill:url(#SVGID_2_);stroke:#D4FFF8;stroke-width:2;stroke-miterlimit:10;}
	.st24{fill:url(#SVGID_3_);stroke:#D4FFF8;stroke-miterlimit:10;}
	.st25{fill:url(#SVGID_4_);stroke:#D4FFF8;stroke-width:2;stroke-miterlimit:10;}
	.st26{fill:url(#SVGID_5_);stroke:#D4FFF8;stroke-miterlimit:10;}
	.st27{fill:url(#SVGID_6_);stroke:#D4FFF8;stroke-width:2;stroke-miterlimit:10;}
	.st28{fill:url(#SVGID_7_);stroke:#D4FFF8;stroke-miterlimit:10;}
	.st29{fill:url(#SVGID_8_);stroke:#D4FFF8;stroke-width:2;stroke-miterlimit:10;}
	.st30{fill:url(#SVGID_9_);stroke:#D4FFF8;stroke-miterlimit:10;}
	.st31{fill:url(#SVGID_10_);stroke:#D4FFF8;stroke-width:2;stroke-miterlimit:10;}
	.st32{fill:url(#SVGID_11_);stroke:#D4FFF8;stroke-miterlimit:10;}
	.st33{fill:url(#SVGID_12_);stroke:#D4FFF8;stroke-width:2;stroke-miterlimit:10;}
	.st34{fill:url(#SVGID_13_);stroke:#D4FFF8;stroke-miterlimit:10;}
	.st35{fill:url(#SVGID_14_);stroke:#D4FFF8;stroke-width:2;stroke-miterlimit:10;}
	.st36{fill:url(#SVGID_15_);stroke:#D4FFF8;stroke-miterlimit:10;}
	.st37{fill:url(#SVGID_16_);stroke:#D4FFF8;stroke-width:2;stroke-miterlimit:10;}
	.st38{fill:url(#SVGID_17_);stroke:#D4FFF8;stroke-miterlimit:10;}
	.st39{fill:url(#SVGID_18_);stroke:#D4FFF8;stroke-width:2;stroke-miterlimit:10;}
	.st40{fill:url(#SVGID_19_);stroke:#D4FFF8;stroke-width:2;stroke-miterlimit:10;}
</style>
<pattern  y="560" width="57" height="57" patternUnits="userSpaceOnUse" id="New_Pattern_Swatch_10" viewBox="0 -57 57 57" style="overflow:visible;">
	<g>
		<rect y="-57" class="st0" width="57" height="57"/>
		<g>
			<rect y="-57" class="st0" width="57" height="57"/>
			<rect y="-57" class="st1" width="57" height="57"/>
		</g>
	</g>
</pattern>
<g id="Layer_1_1_">
	<rect class="st1" width="1281.1" height="560"/>
	<g class="st6">
		<g>
			<g>
				<polygon class="st2" points="548.9,316.2 497.2,316.2 497.2,249.3 506.6,249.3 506.6,251.6 499.6,251.6 499.6,313.8 
					546.5,313.8 546.5,251.6 539.5,251.6 539.5,249.3 548.9,249.3 				"/>
			</g>
			<g>
				<path class="st2" d="M537.1,256.3h-28.2v-9.4h7.1c0.6-3.3,3.5-5.9,6.9-5.9c3.5,0,6.4,2.5,6.9,5.9h7.1v9.4H537.1z M511.3,254
					h23.5v-4.7h-7v-1.2c0-2.6-2.1-4.7-4.7-4.7c-2.6,0-4.7,2.1-4.7,4.7v1.2h-7L511.3,254L511.3,254z"/>
			</g>
			<g>
				<rect x="521.9" y="246.9" class="st2" width="2.3" height="2.3"/>
			</g>
			<g>
				<polygon class="st2" points="544.2,306.8 501.9,306.8 501.9,250.4 504.3,250.4 504.3,304.4 541.8,304.4 541.8,250.4 
					544.2,250.4 				"/>
			</g>
			<g>
				<g>
					<rect x="511.3" y="261" class="st2" width="2.3" height="7"/>
				</g>
				<g>
					<rect x="509" y="263.4" class="st2" width="7" height="2.3"/>
				</g>
			</g>
			<g>
				<g>
					<rect x="509" y="270.4" class="st2" width="2.3" height="2.3"/>
				</g>
				<g>
					<rect x="513.7" y="270.4" class="st2" width="23.5" height="2.3"/>
				</g>
				<g>
					<rect x="509" y="275.1" class="st2" width="2.3" height="2.3"/>
				</g>
				<g>
					<rect x="513.7" y="275.1" class="st2" width="23.5" height="2.3"/>
				</g>
				<g>
					<rect x="509" y="279.8" class="st2" width="2.3" height="2.3"/>
				</g>
				<g>
					<rect x="513.7" y="279.8" class="st2" width="23.5" height="2.3"/>
				</g>
				<g>
					<rect x="509" y="284.5" class="st2" width="2.3" height="2.3"/>
				</g>
				<g>
					<rect x="513.7" y="284.5" class="st2" width="23.5" height="2.3"/>
				</g>
				<g>
					<rect x="509" y="289.2" class="st2" width="2.3" height="2.3"/>
				</g>
				<g>
					<rect x="513.7" y="289.2" class="st2" width="23.5" height="2.3"/>
				</g>
			</g>
			<g>
				<rect x="534.8" y="296.2" class="st2" width="2.3" height="2.3"/>
			</g>
			<g>
				<rect x="523.1" y="296.2" class="st2" width="9.4" height="2.3"/>
			</g>
			<g>
				<path class="st2" d="M537.1,268.1h-18.8v-7h18.8V268.1z M520.7,265.7h14.1v-2.3h-14.1V265.7z"/>
			</g>
		</g>
		<g>
			<g>
				<path class="st2" d="M558.3,316.2h-7v-63.7l1.6-3.2h3.8l1.6,3.2V316.2z M553.6,313.8h2.3V253l-0.7-1.5h-0.9l-0.7,1.5
					L553.6,313.8L553.6,313.8z"/>
			</g>
			<g>
				<rect x="553.6" y="246.9" class="st2" width="2.3" height="3.5"/>
			</g>
			<g>
				<rect x="552.4" y="258.7" class="st2" width="4.7" height="2.3"/>
			</g>
			<g>
				<rect x="552.4" y="263.4" class="st2" width="4.7" height="2.3"/>
			</g>
			<g>
				<rect x="552.4" y="268.1" class="st2" width="4.7" height="2.3"/>
			</g>
			<g>
				<rect x="552.4" y="309.1" class="st2" width="4.7" height="2.3"/>
			</g>
		</g>
	</g>
	<g class="st6">
		<path class="st7" d="M407.1,437.2h2.9c2.6,0,4.7,2.1,4.7,4.7v0.8c0,2.6-2.1,4.7-4.7,4.7h-5.5"/>
		<path class="st7" d="M396.8,437.2H392c-2.6,0-4.7-2.1-4.7-4.7v-0.7c0-2.6,2.1-4.7,4.7-4.7h5.5"/>
		<path class="st7" d="M396.8,417.1h-8.5c-7.5,0-13.6-6-13.6-13.4v-2.2c0-7.4,6.1-13.3,13.6-13.3h1.3"/>
		<path class="st7" d="M389.7,388.1h-0.1c4.5,0,8.6,2.2,11,5.6"/>
		<line class="st7" x1="401.8" y1="464.5" x2="401.8" y2="411"/>
		<path class="st7" d="M382.2,403.6c0.1,3.9,3.3,7.1,7.2,7.1h24.8c3.9,0,7-3.1,7.2-7.1H382.2z"/>
		<path class="st7" d="M402,457.5h-2.1c-2.6,0-4.7-2.1-4.7-4.7V452c0-2.6,2.1-4.7,4.7-4.7h5.5"/>
		<path class="st7" d="M407.1,417.1h11.5c2.6,0,4.8,2.1,4.8,4.7v0.8c0,2.6-2.1,4.7-4.8,4.7H396"/>
		<ellipse class="st7" cx="402.1" cy="396.6" rx="3.2" ry="3.1"/>
		<path class="st7" d="M389,469.1h25.6c-2.1-2.9-5.6-4.9-9.5-4.9h-6.6C394.6,464.1,391.1,466.1,389,469.1z"/>
	</g>
	<g class="st6">
		<g>
			<path class="st8" d="M752.6,228H763c4.3,0,7.8,3.1,7.8,6.8v10.6"/>
			<path class="st8" d="M720.8,246.5v-11.6c0-3.8,3.5-6.8,7.8-6.8H739"/>
			<polyline class="st8" points="752.3,223.2 752.3,228.4 745.8,235.3 739.2,228.4 739.2,223.2 			"/>
			<path class="st8" d="M729.2,189.8c-1.4,2-2.3,4.3-2.8,6.8c-2.7,1.6-4.5,4.5-4.5,7.7c0,2.9,1.4,5.5,3.6,7.1
				c-0.4,0.8-0.6,1.8-0.6,2.7c0,4.1,4,7.5,8.9,7.5c0.4,0,0.8,0,1.2-0.1"/>
			<path class="st8" d="M758.8,217.4c0.8,0.4,1.6,0.6,2.5,0.6c3,0,5.5-2.4,5.5-5.4c0-1.2-0.1-2.1-0.8-3c2.3-1.6,3.6-4.5,3.6-7.5
				c0-3.9-2.6-7.3-6.2-8.5c0.1-0.2-0.3-2.2-1.3-3.8"/>
			<path class="st8" d="M760.2,201.5c0.5-0.2,1.1-0.3,1.7-0.3c2.8,0,5,2.2,5,5s-2.3,5-5,5"/>
			<path class="st8" d="M729.2,211.2c-2.8,0-5-2.2-5-5s2.3-5,5-5"/>
			<path class="st8" d="M761.3,200.9v7.6c0,9-7.4,16.4-16.6,16.4l0,0c-9.1,0-16.6-7.3-16.6-16.4v-7.6"/>
			<path class="st8" d="M740.5,217.6c3.3,1.3,6.9,1,9.9-0.5"/>
			<path class="st8" d="M739.2,190.6c-1.4,4-4.3,7.5-8.4,9.6c-1.1,0.6-1.9,0.9-3.2,1.4"/>
			<path class="st8" d="M761.5,201.3c-7.1,0.4-15.8-1.9-19.2-9.2l-0.8-1.8"/>
			<line class="st8" x1="740" y1="205.4" x2="736.8" y2="205.4"/>
			<line class="st8" x1="752.1" y1="205.4" x2="749" y2="205.4"/>
			<polyline class="st8" points="747.1,212 743.8,212 743.8,203.7 			"/>
			<path class="st8" d="M761.7,190.6c-10.8,0-21.5,0-32.3,0c0-2.7,0-5.3,0-8c10.2-5,22.1-5,32.3,0
				C761.7,185.3,761.7,188,761.7,190.6z"/>
			<g>
				<g>
					<line class="st8" x1="745.6" y1="181.6" x2="745.6" y2="188.3"/>
					<line class="st8" x1="749" y1="185" x2="742.2" y2="185"/>
				</g>
			</g>
			<g>
				<polyline class="st8" points="745.6,254.1 738.2,228.4 735.8,228.4 733.1,233 736.7,236.1 734,238.9 740.7,253.5 				"/>
				<polyline class="st8" points="745.6,254.1 753.3,228.4 755.8,228.4 758.6,233 755,236.1 757.7,238.9 750.3,253.5 				"/>
			</g>
		</g>
		<g>
			<circle class="st9" cx="745.2" cy="212.4" r="42"/>
		</g>
	</g>
	<g class="st10">
		<g>
			<rect x="244.6" y="246.7" class="st2" width="4.3" height="2.2"/>
		</g>
		<g>
			<rect x="239.2" y="188.6" class="st2" width="2.2" height="2.2"/>
		</g>
		<g>
			<rect x="243.5" y="188.6" class="st2" width="10.8" height="2.2"/>
		</g>
		<g>
			<rect x="228.4" y="192.9" class="st2" width="36.6" height="2.2"/>
		</g>
		<g>
			<rect x="228.4" y="242.4" class="st2" width="36.6" height="2.2"/>
		</g>
		<g>
			<path class="st2" d="M261.8,253.2h-30.2c-2.4,0-4.3-1.9-4.3-4.3v-60.3c0-2.4,1.9-4.3,4.3-4.3h30.2c2.4,0,4.3,1.9,4.3,4.3v45.3
				h-2.2v-45.3c0-1.2-1-2.2-2.2-2.2h-30.2c-1.2,0-2.2,1-2.2,2.2v60.3c0,1.2,1,2.2,2.2,2.2h30.2c1.2,0,2.2-1,2.2-2.2v-8.6h2.2v8.6
				C266.1,251.3,264.2,253.2,261.8,253.2z"/>
		</g>
		<g>
			<path class="st2" d="M282.3,218.7c-0.2,0-0.4-0.1-0.6-0.2c-0.5-0.4-13.4-9.1-13.4-19.2v-6.5c0-3,2.4-5.4,5.4-5.4v2.2
				c-1.8,0-3.2,1.4-3.2,3.2v6.5c0,7.9,9.4,15.2,11.9,17c2.5-1.8,11.9-9.1,11.9-17v-6.5c0-1.8-1.4-3.2-3.2-3.2v-2.2
				c3,0,5.4,2.4,5.4,5.4v6.5c0,10.2-12.9,18.8-13.4,19.2C282.7,218.7,282.5,218.7,282.3,218.7z"/>
		</g>
		<g>
			<path class="st2" d="M276.9,192.9h-2.2c-1.2,0-2.2-1-2.2-2.2v-4.3c0-1.2,1-2.2,2.2-2.2h2.2c1.2,0,2.2,1,2.2,2.2v4.3
				C279.1,191.9,278.1,192.9,276.9,192.9z M274.8,186.4v4.3h2.2v-4.3H274.8z"/>
		</g>
		<g>
			<path class="st2" d="M289.8,192.9h-2.2c-1.2,0-2.2-1-2.2-2.2v-4.3c0-1.2,1-2.2,2.2-2.2h2.2c1.2,0,2.2,1,2.2,2.2v4.3
				C292,191.9,291,192.9,289.8,192.9z M287.7,186.4v4.3h2.2v-4.3H287.7z"/>
		</g>
		<g>
			<path class="st2" d="M282.3,210.1c-7.7,0-14-4.8-14-10.8h2.2c0,4.8,5.3,8.6,11.9,8.6c6.5,0,11.9-3.9,11.9-8.6h2.2
				C296.3,205.3,290,210.1,282.3,210.1z"/>
		</g>
		<g>
			<g>
				<path class="st2" d="M246.7,214.4c-4.2,0-7.5-3.4-7.5-7.5s3.4-7.5,7.5-7.5c4.2,0,7.5,3.4,7.5,7.5S250.9,214.4,246.7,214.4z
					 M246.7,201.5c-3,0-5.4,2.4-5.4,5.4s2.4,5.4,5.4,5.4s5.4-2.4,5.4-5.4S249.7,201.5,246.7,201.5z"/>
			</g>
			<g>
				<circle class="st2" cx="246.7" cy="206.9" r="2.2"/>
			</g>
		</g>
		<g>
			<path class="st2" d="M279.1,250c-2.4,0-4.3-1.9-4.3-4.3v-18.3c0-1.2-1-2.2-2.2-2.2c-1.2,0-2.2,1-2.2,2.2v6.5
				c0,2.4-1.9,4.3-4.3,4.3h-28c-2.4,0-4.3-1.9-4.3-4.3c0-2.4,1.9-4.3,4.3-4.3h17.2c1.2,0,2.2-1,2.2-2.2s-1-2.2-2.2-2.2h-5.4
				c-2.4,0-4.3-1.9-4.3-4.3v-4.3h2.2v4.3c0,1.2,1,2.2,2.2,2.2h5.4c2.4,0,4.3,1.9,4.3,4.3c0,2.4-1.9,4.3-4.3,4.3h-17.2
				c-1.2,0-2.2,1-2.2,2.2s1,2.2,2.2,2.2h28c1.2,0,2.2-1,2.2-2.2v-6.5c0-2.4,1.9-4.3,4.3-4.3s4.3,1.9,4.3,4.3v18.3
				c0,1.2,1,2.2,2.2,2.2c1.2,0,2.2-1,2.2-2.2v-28h2.2v28C283.4,248,281.4,250,279.1,250z"/>
		</g>
	</g>
	<rect x="1257.3" y="384" class="st11" width="2.8" height="0.2"/>
	<circle class="st12" cx="124.6" cy="376.3" r="9"/>
	<circle class="st13" cx="407" cy="168.4" r="39.6"/>
	<rect x="1239.9" y="384" class="st11" width="2.8" height="0.2"/>
	<rect x="1249.9" y="374" class="st11" width="0.2" height="2.8"/>
	<rect x="1249.9" y="391.5" class="st11" width="0.2" height="2.8"/>
	
		<rect x="1256" y="389" transform="matrix(0.7071 -0.7071 0.7071 0.7071 91.8799 1002.5177)" class="st11" width="0.2" height="2.8"/>
	
		<rect x="1243.7" y="376.6" transform="matrix(0.7071 -0.7071 0.7071 0.7071 97.0297 990.1937)" class="st11" width="0.2" height="2.8"/>
	
		<rect x="1254.8" y="377.9" transform="matrix(0.707 -0.7072 0.7072 0.707 100.7241 999.1616)" class="st11" width="2.8" height="0.2"/>
	
		<rect x="1242.3" y="390.2" transform="matrix(0.7072 -0.707 0.707 0.7072 88.2396 993.6038)" class="st11" width="2.8" height="0.2"/>
	<rect x="684.8" y="29.5" class="st11" width="5.8" height="3.2"/>
	<rect x="667.4" y="29.5" class="st11" width="5.8" height="3.2"/>
	<rect x="677.4" y="19.5" class="st11" width="3.2" height="5.8"/>
	<rect x="677.4" y="37" class="st11" width="3.2" height="5.8"/>
	<polygon class="st11" points="682,36.4 686,40.5 688.3,38.2 684.3,34.2 	"/>
	<polygon class="st11" points="669.6,24.1 673.7,28.2 676,25.9 671.9,21.8 	"/>
	<polygon class="st11" points="688.3,24.1 686,21.8 682,25.9 684.3,28.2 	"/>
	<polygon class="st11" points="669.6,38.2 671.9,40.5 676,36.4 673.7,34.2 	"/>
	<path class="st11" d="M911,350.4c-16.8,0-30.5,13.7-30.5,30.5s13.7,30.5,30.5,30.5s30.5-13.7,30.5-30.5S927.8,350.4,911,350.4z
		 M911,408.4c-15.2,0-27.5-12.3-27.5-27.5s12.3-27.5,27.5-27.5s27.5,12.3,27.5,27.5S926.1,408.4,911,408.4z"/>
	<path class="st11" d="M54.1,67.5c11.1,0,20.1-9,20.1-20.1s-9-20.1-20.1-20.1C43,27.2,34,36.3,34,47.4S43,67.5,54.1,67.5z
		 M54.1,29.8c9.7,0,17.6,7.9,17.6,17.6S63.8,65,54.1,65s-17.6-7.9-17.6-17.6S44.4,29.8,54.1,29.8z"/>
	<path class="st11" d="M1236,160.1c-11.6,0-21,9.4-21,21s9.4,21,21,21s21-9.4,21-21S1247.6,160.1,1236,160.1z M1236,199.1
		c-9.9,0-18-8.1-18-18s8.1-18,18-18s18,8.1,18,18S1245.9,199.1,1236,199.1z"/>
	<path class="st11" d="M566,399.5c-11.4,0-20.6,9.3-20.6,20.7c0,11.4,9.3,20.6,20.6,20.6c11.4,0,20.7-9.3,20.7-20.6
		C586.7,408.7,577.4,399.5,566,399.5z M566,438.4c-10.1,0-18.3-8.2-18.3-18.3s8.2-18.3,18.3-18.3s18.3,8.2,18.3,18.3
		S576.1,438.4,566,438.4z"/>
	<path class="st11" d="M59.1,476.3c-8.4,0-15.3,6.8-15.3,15.3s6.8,15.3,15.3,15.3c8.4,0,15.3-6.8,15.3-15.3S67.5,476.3,59.1,476.3z
		 M59.1,505c-7.4,0-13.5-6.1-13.5-13.5s6-13.5,13.5-13.5s13.5,6.1,13.5,13.5S66.5,505,59.1,505z"/>
	<g>
		<path class="st11" d="M736.6,113.5l-1.2,1c0.7,0.9,1.5,1.6,2.3,2.3l1-1.2C738,115,737.3,114.3,736.6,113.5z"/>
		<path class="st11" d="M740.6,118.6c1,0.5,2.1,0.8,3.1,1.1l0.3-1.5c-1-0.2-1.9-0.5-2.8-1L740.6,118.6z"/>
		<path class="st11" d="M743.6,90.9l0.4,1.5c1-0.2,1.9-0.3,2.9-0.3v-1.6C745.8,90.5,744.7,90.6,743.6,90.9z"/>
		<path class="st11" d="M732.2,105.3L732.2,105.3h1.6c0-1,0.1-2,0.3-2.9l-1.5-0.3C732.3,103.1,732.2,104.2,732.2,105.3z"/>
		<path class="st11" d="M732.5,108.6c0.2,1.1,0.6,2.1,1.1,3.1l1.4-0.7c-0.4-0.9-0.8-1.8-1-2.8L732.5,108.6z"/>
		<path class="st11" d="M736.6,97.1l-1.2-1c-0.7,0.9-1.3,1.8-1.8,2.8l1.4,0.7C735.5,98.7,736,97.9,736.6,97.1z"/>
		<path class="st11" d="M740.5,92c-1,0.5-1.9,1.1-2.8,1.8l1,1.2c0.8-0.6,1.6-1.2,2.5-1.6L740.5,92z"/>
		<path class="st11" d="M761.4,102c-0.2-1.1-0.6-2.1-1.1-3.1l-1.4,0.7c0.4,0.9,0.8,1.8,1,2.8L761.4,102z"/>
		<path class="st11" d="M759.8,108.2l1.5,0.4c0.2-1.1,0.4-2.2,0.4-3.3v-0.1l-1.6,0.1C760.2,106.3,760,107.3,759.8,108.2z"/>
		<path class="st11" d="M747,118.5v1.6c1.1,0,2.2-0.1,3.3-0.4l-0.4-1.5C748.9,118.4,748,118.5,747,118.5z"/>
		<path class="st11" d="M757.3,113.5l1.2,1c0.7-0.9,1.3-1.8,1.8-2.8l-1.4-0.7C758.4,111.9,757.9,112.8,757.3,113.5z"/>
		<path class="st11" d="M750.2,90.9l-0.3,1.5c1,0.2,1.9,0.5,2.8,1l0.7-1.4C752.3,91.5,751.3,91.1,750.2,90.9z"/>
		<path class="st11" d="M756.1,93.7l-1,1.2c0.8,0.6,1.5,1.3,2.1,2.1l1.2-1C757.8,95.2,757,94.4,756.1,93.7z"/>
		<path class="st11" d="M752.7,117.2l0.7,1.4c1-0.5,1.9-1.1,2.8-1.8l-1-1.2C754.4,116.2,753.6,116.8,752.7,117.2z"/>
	</g>
	<g>
		<path class="st11" d="M910.3,205.7c-0.3-1.1-0.6-2.2-1.1-3.2l-1.8,0.9c0.4,0.9,0.8,1.8,1,2.7L910.3,205.7z"/>
		<path class="st11" d="M885.5,217.2l-1.6,1.2c0.7,0.9,1.5,1.7,2.4,2.4l1.2-1.6C886.8,218.6,886.1,217.9,885.5,217.2z"/>
		<path class="st11" d="M905.8,217.2l1.6,1.2c0.7-0.9,1.3-1.8,1.8-2.8l-1.8-0.9C907,215.6,906.4,216.4,905.8,217.2z"/>
		<path class="st11" d="M890,197.4l-0.9-1.8c-1,0.5-2,1.1-2.8,1.8l1.3,1.6C888.3,198.3,889.1,197.8,890,197.4z"/>
		<path class="st11" d="M905,197.3l-1.2,1.6c0.8,0.6,1.5,1.3,2.1,2.1l1.6-1.3C906.6,198.8,905.8,198,905,197.3z"/>
		<path class="st11" d="M880.7,209.1L880.7,209.1h2c0-1,0.1-1.9,0.3-2.9l-2-0.4C880.8,206.8,880.7,208,880.7,209.1z"/>
		<path class="st11" d="M883,212l-1.9,0.4c0.3,1.1,0.6,2.2,1.1,3.2l1.8-0.9C883.5,213.9,883.2,212.9,883,212z"/>
		<path class="st11" d="M899,194.4l-0.4,2c0.9,0.2,1.9,0.5,2.7,1l0.9-1.8C901.1,195.1,900,194.7,899,194.4z"/>
		<path class="st11" d="M889.2,222.6c1,0.5,2.1,0.9,3.2,1.1l0.4-2c-0.9-0.2-1.9-0.5-2.7-1L889.2,222.6z"/>
		<path class="st11" d="M895.7,222.1v2c1.1,0,2.2-0.1,3.3-0.4l-0.4-2C897.6,222,896.7,222.1,895.7,222.1z"/>
		<path class="st11" d="M892.3,194.5l0.4,1.9c0.9-0.2,1.9-0.3,2.9-0.3v-2C894.5,194.1,893.4,194.2,892.3,194.5z"/>
		<path class="st11" d="M901.3,220.8l0.9,1.8c1-0.5,2-1.1,2.8-1.8l-1.2-1.6C903,219.8,902.2,220.4,901.3,220.8z"/>
		<path class="st11" d="M885.5,201l-1.6-1.2c-0.7,0.9-1.3,1.8-1.8,2.8l1.8,0.9C884.4,202.6,884.9,201.8,885.5,201z"/>
		<path class="st11" d="M908.3,212l2,0.4c0.2-1.1,0.4-2.2,0.4-3.3V209l-2,0.1C908.7,210,908.5,211,908.3,212z"/>
	</g>
	<g>
		<path class="st11" d="M345.9,296c-0.2-0.8-0.5-1.7-0.8-2.5l-1.4,0.7c0.3,0.7,0.6,1.4,0.8,2.1L345.9,296z"/>
		<path class="st11" d="M326.8,304.9l-1.2,0.9c0.5,0.7,1.2,1.3,1.8,1.8l0.9-1.2C327.8,306,327.3,305.4,326.8,304.9z"/>
		<path class="st11" d="M342.4,304.9l1.2,0.9c0.5-0.7,1-1.4,1.4-2.2l-1.4-0.7C343.3,303.6,342.9,304.3,342.4,304.9z"/>
		<path class="st11" d="M330.3,289.6l-0.7-1.4c-0.8,0.4-1.5,0.8-2.2,1.4l1,1.2C328.9,290.3,329.6,289.9,330.3,289.6z"/>
		<path class="st11" d="M341.8,289.6l-0.9,1.2c0.6,0.5,1.2,1,1.6,1.6l1.2-1C343,290.7,342.4,290.1,341.8,289.6z"/>
		<path class="st11" d="M323.1,298.6L323.1,298.6h1.5c0-0.8,0.1-1.5,0.2-2.2l-1.5-0.3C323.2,296.9,323.1,297.8,323.1,298.6z"/>
		<path class="st11" d="M324.9,300.9l-1.5,0.3c0.2,0.8,0.5,1.7,0.8,2.5l1.4-0.7C325.3,302.3,325,301.6,324.9,300.9z"/>
		<path class="st11" d="M337.2,287.3l-0.3,1.5c0.7,0.2,1.5,0.4,2.1,0.8l0.7-1.4C338.8,287.9,338,287.6,337.2,287.3z"/>
		<path class="st11" d="M329.6,309c0.8,0.4,1.6,0.7,2.5,0.8l0.3-1.5c-0.7-0.2-1.5-0.4-2.1-0.8L329.6,309z"/>
		<path class="st11" d="M334.6,308.7v1.5c0.8,0,1.7-0.1,2.5-0.3l-0.3-1.5C336.1,308.6,335.4,308.7,334.6,308.7z"/>
		<path class="st11" d="M332,287.4l0.3,1.5c0.7-0.2,1.5-0.2,2.2-0.2v-1.5C333.7,287.1,332.9,287.2,332,287.4z"/>
		<path class="st11" d="M339,307.7l0.7,1.4c0.8-0.4,1.5-0.8,2.2-1.4l-0.9-1.2C340.3,306.9,339.6,307.3,339,307.7z"/>
		<path class="st11" d="M326.8,292.4l-1.2-0.9c-0.5,0.7-1,1.4-1.4,2.2l1.4,0.7C325.9,293.6,326.3,293,326.8,292.4z"/>
		<path class="st11" d="M344.3,300.9l1.5,0.3c0.2-0.8,0.3-1.7,0.3-2.5v-0.1l-1.5,0.1C344.7,299.3,344.5,300.1,344.3,300.9z"/>
	</g>
	<path class="st11" d="M749.8,310.8l-1,1.2c0.8,0.6,1.5,1.3,2.1,2.1l1.2-1C751.4,312.3,750.6,311.5,749.8,310.8z"/>
	<path class="st11" d="M753.5,325.3l1.5,0.4c0.2-1.1,0.4-2.2,0.4-3.3v-0.1l-1.6,0.1C753.8,323.4,753.7,324.4,753.5,325.3z"/>
	<path class="st11" d="M750.9,330.6l1.2,1c0.7-0.9,1.3-1.8,1.8-2.8l-1.4-0.7C752.1,329,751.5,329.9,750.9,330.6z"/>
	<path class="st11" d="M727.7,319.5l-1.5-0.3c-0.2,1.1-0.4,2.2-0.4,3.3l0,0h1.6C727.4,321.4,727.5,320.4,727.7,319.5z"/>
	<path class="st11" d="M730.2,314.2l-1.2-1c-0.7,0.9-1.3,1.8-1.8,2.8l1.4,0.7C729.1,315.8,729.6,315,730.2,314.2z"/>
	<path class="st11" d="M734.8,310.5l-0.7-1.4c-1,0.5-1.9,1.1-2.8,1.8l1,1.2C733.1,311.5,733.9,311,734.8,310.5z"/>
	<path class="st11" d="M755,319.1c-0.2-1.1-0.6-2.1-1.1-3.1l-1.4,0.7c0.4,0.9,0.8,1.8,1,2.8L755,319.1z"/>
	<path class="st11" d="M740.6,335.6v1.6c1.1,0,2.2-0.1,3.3-0.4l-0.4-1.5C742.6,335.5,741.6,335.6,740.6,335.6z"/>
	<path class="st11" d="M730.3,330.7l-1.2,1c0.7,0.9,1.5,1.6,2.3,2.3l1-1.2C731.6,332.1,730.9,331.4,730.3,330.7z"/>
	<path class="st11" d="M746.3,334.3l0.7,1.4c1-0.5,1.9-1.1,2.8-1.8l-1-1.2C748,333.3,747.2,333.9,746.3,334.3z"/>
	<path class="st11" d="M734.2,335.7c1,0.5,2,0.8,3.1,1.1l0.3-1.5c-1-0.2-1.9-0.5-2.8-1L734.2,335.7z"/>
	<path class="st11" d="M737.3,308l0.4,1.5c1-0.2,1.9-0.3,2.9-0.3v-1.6C739.4,307.6,738.3,307.8,737.3,308z"/>
	<path class="st11" d="M743.8,308l-0.3,1.5c1,0.2,1.9,0.5,2.8,1l0.7-1.4C746,308.6,744.9,308.2,743.8,308z"/>
	<path class="st11" d="M726.2,325.7c0.2,1.1,0.6,2.1,1.1,3.1l1.4-0.7c-0.4-0.9-0.8-1.8-1-2.8L726.2,325.7z"/>
	<g>
		<path class="st11" d="M260.1,135l-1.6,1.2c0.7,0.9,1.5,1.7,2.4,2.4l1.2-1.6C261.4,136.5,260.8,135.8,260.1,135z"/>
		<path class="st11" d="M270.3,139.9v2c1.1,0,2.2-0.1,3.3-0.4l-0.4-2C272.3,139.8,271.3,139.9,270.3,139.9z"/>
		<path class="st11" d="M263.8,140.4c1,0.5,2.1,0.9,3.2,1.1l0.4-2c-0.9-0.2-1.9-0.5-2.7-1L263.8,140.4z"/>
		<path class="st11" d="M257.6,129.8l-1.9,0.4c0.3,1.1,0.6,2.2,1.1,3.2l1.8-0.9C258.2,131.7,257.8,130.8,257.6,129.8z"/>
		<path class="st11" d="M266.9,112.3l0.4,1.9c0.9-0.2,1.9-0.3,2.9-0.3v-2C269.1,111.9,268,112,266.9,112.3z"/>
		<path class="st11" d="M262.2,116.8c0.8-0.6,1.6-1.1,2.5-1.6l-0.9-1.8c-1,0.5-2,1.1-2.8,1.8L262.2,116.8z"/>
		<path class="st11" d="M275.9,138.6l0.9,1.8c1-0.5,2-1.1,2.8-1.8l-1.2-1.6C277.6,137.7,276.8,138.2,275.9,138.6z"/>
		<path class="st11" d="M258.6,121.3c0.4-0.9,0.9-1.7,1.5-2.5l-1.6-1.2c-0.7,0.9-1.3,1.8-1.8,2.8L258.6,121.3z"/>
		<path class="st11" d="M257.6,124l-2-0.4c-0.2,1.1-0.4,2.2-0.4,3.3l0,0h2C257.3,125.9,257.4,125,257.6,124z"/>
		<path class="st11" d="M273.6,112.3l-0.4,2c0.9,0.2,1.9,0.5,2.7,1l0.9-1.8C275.7,112.9,274.7,112.5,273.6,112.3z"/>
		<path class="st11" d="M279.6,115.1l-1.2,1.6c0.8,0.6,1.5,1.3,2.1,2l1.6-1.3C281.3,116.6,280.5,115.8,279.6,115.1z"/>
		<path class="st11" d="M283,129.8l2,0.4c0.2-1.1,0.4-2.2,0.4-3.3v-0.1l-2,0.1C283.3,127.9,283.2,128.8,283,129.8z"/>
		<path class="st11" d="M284.9,123.5c-0.3-1.1-0.6-2.2-1.1-3.2l-1.8,0.9c0.4,0.9,0.8,1.8,1,2.7L284.9,123.5z"/>
		<path class="st11" d="M280.5,135l1.6,1.2c0.7-0.9,1.3-1.8,1.8-2.8l-1.8-0.9C281.6,133.4,281.1,134.2,280.5,135z"/>
	</g>
	<circle class="st11" cx="1196.2" cy="363.9" r="3.2"/>
	<circle class="st11" cx="803.8" cy="248.6" r="3.2"/>
	<circle class="st11" cx="1123.3" cy="225.2" r="3.2"/>
	<circle class="st11" cx="601.1" cy="191.6" r="3.2"/>
	<circle class="st11" cx="1023.4" cy="525" r="4"/>
	<circle class="st11" cx="1256.4" cy="274.6" r="4"/>
	<circle class="st11" cx="929.1" cy="140.6" r="4"/>
	<circle class="st11" cx="557.1" cy="94.6" r="4"/>
	<circle class="st11" cx="723.8" cy="403.8" r="4"/>
	<circle class="st11" cx="211.5" cy="183" r="4"/>
	<circle class="st11" cx="937.8" cy="288.8" r="4"/>
	<circle class="st11" cx="466.3" cy="357.1" r="4"/>
	<circle class="st11" cx="796.7" cy="524.2" r="4"/>
	<circle class="st11" cx="238.9" cy="417.6" r="4"/>
	<rect x="332.4" y="441" class="st11" width="2.8" height="0.2"/>
	<rect x="314.9" y="441" class="st11" width="2.8" height="0.2"/>
	<rect x="324.9" y="431" class="st11" width="0.2" height="2.8"/>
	<rect x="324.9" y="448.4" class="st11" width="0.2" height="2.8"/>
	
		<rect x="331.1" y="445.9" transform="matrix(0.7071 -0.7071 0.7071 0.7071 -219.2559 365.2203)" class="st11" width="0.2" height="2.8"/>
	
		<rect x="318.7" y="433.5" transform="matrix(0.7071 -0.7071 0.7071 0.7071 -214.1672 352.8204)" class="st11" width="0.2" height="2.8"/>
	
		<rect x="329.8" y="434.8" transform="matrix(0.7072 -0.707 0.707 0.7072 -210.4824 361.4831)" class="st11" width="2.8" height="0.2"/>
	
		<rect x="317.5" y="447" transform="matrix(0.7072 -0.707 0.707 0.7072 -222.7796 356.3536)" class="st11" width="2.8" height="0.2"/>
	<g>
		<path class="st11" d="M206.5,77.5c1.2,0,2.1-1,2.1-2.1V62.1h-4.3v13.3C204.3,76.5,205.3,77.5,206.5,77.5z"/>
		<path class="st11" d="M225.8,77.5c1.2,0,2.1-1,2.1-2.1V66h-4.3v9.4C223.6,76.5,224.6,77.5,225.8,77.5z"/>
		<path class="st11" d="M252.2,75.4V59.3h4.8v-2.2h-4.8v-5.8h1.5v-2.2h-17.2v2.2h1.5v5.8h-5.1v-5.8h1.5v-2.2h-17.2v2.2h1.5v5.8h-5.1
			v-5.8h1.5v-2.2h-17.2v2.2h1.5v5.8h-5.9v9.1h2.2v-7h3.7v16.1c0,3.9,3.2,7.1,7.1,7.1s7.1-3.2,7.1-7.1v-16h5.1v16.1
			c0,3.9,3.2,7.1,7.1,7.1s7.1-3.2,7.1-7.1V59.3h5.1v16.1c0,3.9,3.2,7.1,7.1,7.1C249,82.5,252.2,79.3,252.2,75.4z M211.4,75.4
			c0,2.7-2.2,4.9-4.9,4.9s-4.9-2.2-4.9-4.9V59.3h9.8L211.4,75.4L211.4,75.4z M211.4,57.1h-9.8v-5.8h9.8V57.1z M230.7,75.4
			c0,2.7-2.2,4.9-4.9,4.9s-4.9-2.2-4.9-4.9V59.3h9.8L230.7,75.4L230.7,75.4z M230.7,57.1h-9.8v-5.8h9.8V57.1z M240.2,51.3h9.8v5.8
			h-9.8V51.3z M240.2,75.4V59.3h9.8v16.1c0,2.7-2.2,4.9-4.9,4.9C242.4,80.3,240.2,78.1,240.2,75.4z"/>
		<path class="st11" d="M247.2,75.4v-14h-4.3v14c0,1.2,1,2.1,2.1,2.1C246.3,77.5,247.2,76.5,247.2,75.4z"/>
		<g>
			<rect x="239.2" y="27.5" class="st11" width="2.2" height="3"/>
			<rect x="235" y="30.2" transform="matrix(0.5 -0.866 0.866 0.5 90.631 220.3286)" class="st11" width="2.2" height="3"/>
			
				<rect x="234.8" y="35.5" transform="matrix(0.8662 -0.4997 0.4997 0.8662 13.3324 122.9749)" class="st11" width="3" height="2.2"/>
			<rect x="239.6" y="37.4" class="st11" width="2.2" height="3"/>
			
				<rect x="243.8" y="34.7" transform="matrix(0.4999 -0.8661 0.8661 0.4999 91.1326 230.1552)" class="st11" width="2.2" height="3"/>
			
				<rect x="243.1" y="30.2" transform="matrix(0.8662 -0.4997 0.4997 0.8662 17.0845 126.4202)" class="st11" width="3" height="2.2"/>
			<rect x="221.4" y="30.9" class="st11" width="2.2" height="2.2"/>
			
				<rect x="216.8" y="32.8" transform="matrix(0.707 -0.7072 0.7072 0.707 39.8669 164.0279)" class="st11" width="2.2" height="2.2"/>
			<rect x="214.9" y="37.4" class="st11" width="2.2" height="2.2"/>
			
				<rect x="216.8" y="41.9" transform="matrix(0.7071 -0.7071 0.7071 0.7071 33.4193 166.6758)" class="st11" width="2.2" height="2.2"/>
			<rect x="221.4" y="43.8" class="st11" width="2.2" height="2.2"/>
			
				<rect x="225.9" y="41.9" transform="matrix(0.7074 -0.7068 0.7068 0.7074 36.0307 173.0309)" class="st11" width="2.2" height="2.2"/>
			<rect x="227.8" y="37.4" class="st11" width="2.2" height="2.2"/>
			
				<rect x="225.9" y="32.8" transform="matrix(0.7071 -0.7071 0.7071 0.7071 42.5193 170.4338)" class="st11" width="2.2" height="2.2"/>
		</g>
	</g>
	<path class="st11" d="M29.8,274.9L29.8,274.9c-0.1-0.1-0.2-0.1-0.3-0.1C29.6,274.8,29.7,274.9,29.8,274.9z"/>
	<path class="st11" d="M1210.6,83.7V64.9c0-3.9-3.1-7-7-7h-1c-3.9,0-7,3.1-7,7v0.9h-0.1v32.4c0,5-4.1,9.1-9.1,9.1h-1.7
		c-5,0-9.1-4.1-9.1-9.1V87.9h2.5c7.2,0,13.1-5.9,13.1-13V64.5h0.1V50.6c0-3.2-1.9-5.9-4.7-7.1l0.1-0.3c-1-0.4-2.1-0.7-3.2-0.7v0.3
		V45v0.3c0.7,0,1.4,0.1,2.1,0.4l0.1-0.3c2,0.8,3.3,2.8,3.3,5v13.7h-0.1v10.5c0,6-4.8,10.8-10.8,10.8h-6.8c-6,0-10.8-4.8-10.8-10.8
		V64.4l0,0V50.5c0-2.2,1.3-4.1,3.2-5l0.1,0.2c0.7-0.3,1.4-0.5,2.1-0.5V45v-2.2v-0.3c-1.1,0-2.2,0.2-3.3,0.7l0.1,0.3
		c-2.7,1.2-4.6,3.9-4.6,7v13.8l0,0v10.5c0,7.2,5.9,13,13,13h2.1V98c0,6.3,5.1,11.3,11.3,11.3h1.7c6.3,0,11.3-5.1,11.3-11.3V83.5h0.1
		V64.9c0-2.6,2.1-4.8,4.8-4.8h1c2.6,0,4.8,2.1,4.8,4.8v18.9c-3,0.6-5.3,3.3-5.3,6.5c0,3.6,3,6.6,6.6,6.6s6.6-3,6.6-6.6
		C1216.3,87,1213.8,84.2,1210.6,83.7z M1209.6,93.5c-1.8,0-3.2-1.4-3.2-3.2c0-1.8,1.4-3.2,3.2-3.2c1.8,0,3.2,1.4,3.2,3.2
		C1212.8,92,1211.4,93.5,1209.6,93.5z"/>
	<path class="st11" d="M508,41.4c-0.2-2.8-1.5-5.4-3.6-7.2c-4.4-3.8-11.1-3.3-14.9,1.1L473.2,54c-3.8,4.4-3.3,11.1,1.1,14.9
		c2,1.7,4.5,2.6,6.9,2.6c3,0,5.9-1.2,8-3.6L505.4,49C507.3,46.9,508.2,44.2,508,41.4z M503,46.9l-8,9.3l-11.1-9.6l8-9.3
		c1.5-1.7,3.5-2.5,5.6-2.5c1.7,0,3.4,0.6,4.8,1.8c1.5,1.3,2.4,3.1,2.5,5S504.3,45.5,503,46.9z"/>
	<polygon class="st11" points="1001.3,58.7 991.7,64.3 991.7,53.2 981,53.2 981,64.3 971.4,58.7 966,68 975.6,73.5 966,79.1 
		971.4,88.4 981,82.8 981,93.9 991.7,93.9 991.7,82.8 1001.3,88.4 1006.6,79.1 997,73.5 1006.6,68 	"/>
	<path class="st11" d="M826.1,26.9c0,0-13.4,12.6-13.4,22.3c0,6.9,4.4,15,13.4,15.1c9-0.1,13.4-8.2,13.4-15.1
		C839.5,39.5,826.1,26.9,826.1,26.9z"/>
	<polygon class="st11" points="1085.4,119.6 1081.4,119.6 1081.4,124.8 1076.2,124.8 1076.2,128.8 1081.4,128.8 1081.4,133.9 
		1085.4,133.9 1085.4,128.8 1090.6,128.8 1090.6,124.8 1085.4,124.8 	"/>
	<polygon class="st11" points="952.1,503.6 945.6,475.7 938.6,497 928.1,497 924.8,507.5 920.7,483.6 917.4,483.4 912,501.9 
		910.1,497 878.2,497 878.2,500.3 907.8,500.3 912.5,512.4 918.6,491.3 922.8,515 926,515.2 930.5,500.3 941,500.3 945.1,488.1 
		951.2,514.6 957.7,498.9 976,498.9 976,495.6 955.4,495.6 	"/>
	<g class="st6">
		<path class="st2" d="M617.4,535.2L617.4,535.2l1.7-1.2l-0.9,0.5l0.9-0.5l-0.9,0.6L617.4,535.2z M616.2,533.2
			c-0.3-0.6-0.6-1.3-0.9-2l1.9-0.8c0.3,0.6,0.6,1.2,0.9,1.8L616.2,533.2z M614.5,529.2c-0.2-0.7-0.5-1.4-0.6-2.1l2-0.5
			c0.2,0.6,0.4,1.3,0.6,1.9L614.5,529.2z M613.4,525c-0.1-0.7-0.2-1.4-0.3-2.1l2.1-0.2c0.1,0.7,0.2,1.3,0.3,2L613.4,525z
			 M612.9,520.7c0-0.4,0-0.9,0-1.3c0-0.3,0-0.6,0-0.8l2.1,0.1c0,0.3,0,0.5,0,0.8c0,0.4,0,0.8,0,1.2H612.9z M615.1,516.6l-2.1-0.2
			c0.1-0.7,0.2-1.4,0.3-2.2l2.1,0.4C615.2,515.2,615.2,515.9,615.1,516.6z M615.8,512.6l-2-0.5c0.2-0.7,0.4-1.4,0.6-2.1l2,0.6
			C616.1,511.3,615.9,511.9,615.8,512.6z M617,508.8l-1.9-0.8c0.3-0.7,0.6-1.3,0.9-2l1.9,0.9C617.6,507.5,617.3,508.1,617,508.8z
			 M618.8,505.1L617,504c0.4-0.6,0.8-1.2,1.2-1.8l1.7,1.2C619.5,504,619.2,504.6,618.8,505.1z M621.1,501.8l-1.6-1.3
			c0.5-0.6,0.9-1.1,1.4-1.6l1.5,1.4C622,500.8,621.5,501.3,621.1,501.8z M623.8,498.8l-1.4-1.5c0.5-0.5,1.1-1,1.6-1.4l1.3,1.6
			C624.9,497.9,624.3,498.4,623.8,498.8z M627,496.3l-1.2-1.7c0.6-0.4,1.2-0.8,1.8-1.2l1.1,1.8C628.1,495.5,627.5,495.9,627,496.3z
			 M630.4,494.2l-1-1.9c0.6-0.3,1.3-0.6,2-0.9l0.8,1.9C631.6,493.6,631,493.9,630.4,494.2z"/>
		<path class="st2" d="M671.8,535.2l-1.8-1.1l0.1-0.1L671.8,535.2L671.8,535.2z M672.9,533.2l-1.9-1c0.3-0.6,0.6-1.2,0.9-1.8
			l1.9,0.8C673.5,531.9,673.2,532.6,672.9,533.2z M674.6,529.2l-2-0.7c0.2-0.6,0.4-1.3,0.6-1.9l2,0.5
			C675.1,527.8,674.8,528.5,674.6,529.2z M675.7,525l-2.1-0.4c0.1-0.7,0.2-1.3,0.3-2l2.1,0.2C676,523.6,675.9,524.3,675.7,525z
			 M676.2,520.7l-2.1-0.1c0-0.4,0-0.8,0-1.2c0-0.3,0-0.5,0-0.8l2.1-0.1c0,0.3,0,0.6,0,0.8C676.3,519.8,676.2,520.3,676.2,520.7z
			 M674,516.6c-0.1-0.7-0.2-1.3-0.3-2l2.1-0.4c0.1,0.7,0.2,1.4,0.3,2.1L674,516.6z M673.3,512.6c-0.2-0.7-0.3-1.3-0.6-1.9l2-0.7
			c0.2,0.7,0.4,1.4,0.6,2.1L673.3,512.6z M672.1,508.8c-0.3-0.6-0.5-1.2-0.8-1.8l1.9-0.9c0.3,0.6,0.6,1.3,0.9,2L672.1,508.8z
			 M670.3,505.1c-0.3-0.6-0.7-1.2-1.1-1.7l1.7-1.2c0.4,0.6,0.8,1.2,1.2,1.8L670.3,505.1z M668,501.8c-0.4-0.5-0.9-1-1.3-1.5l1.5-1.4
			c0.5,0.5,1,1.1,1.4,1.6L668,501.8z M665.3,498.8c-0.5-0.5-1-0.9-1.5-1.3l1.3-1.6c0.6,0.5,1.1,0.9,1.6,1.4L665.3,498.8z
			 M662.1,496.3c-0.5-0.4-1.1-0.8-1.7-1.1l1.1-1.8c0.6,0.4,1.2,0.8,1.8,1.2L662.1,496.3z M658.7,494.2c-0.6-0.3-1.2-0.6-1.8-0.9
			l0.8-1.9c0.7,0.3,1.3,0.6,2,0.9L658.7,494.2z"/>
		<g>
			<path class="st2" d="M650,532.6v-2.1c8.2,0,14.9-6.6,14.9-14.7s-6.7-14.7-14.9-14.7V499c9.3,0,17,7.5,17,16.8
				S659.3,532.6,650,532.6z"/>
			<rect x="650" y="527.7" class="st2" width="2.1" height="6.6"/>
			<polygon class="st2" points="648.7,519.5 638.3,519.5 638.3,513.6 640.4,513.6 640.4,517.4 646.6,517.4 646.6,513.7 648.7,513.7 
							"/>
			<polygon class="st2" points="648.7,484.2 646.6,484.2 646.6,476.5 640.4,476.5 640.4,484.1 638.3,484.1 638.3,474.4 648.7,474.4 
							"/>
			<polygon class="st2" points="651.5,514.9 635.5,514.9 635.5,483.9 651.5,483.9 651.5,494.2 649.4,494.2 649.4,486 637.6,486 
				637.6,512.8 649.4,512.8 649.4,506.1 651.5,506.1 			"/>
			<rect x="636.5" y="478.9" class="st2" width="13.9" height="2.1"/>
			<rect x="630.6" y="526.7" class="st2" width="24.3" height="2.1"/>
			<path class="st2" d="M665.4,542.5h-43.6V537c0-1.7,1.4-3.1,3.2-3.1h37.2c1.7,0,3.2,1.4,3.2,3.1L665.4,542.5L665.4,542.5z
				 M623.9,540.5h39.4v-3.4c0-0.6-0.5-1.1-1.1-1.1H625c-0.6,0-1.1,0.5-1.1,1.1V540.5z"/>
			<path class="st2" d="M650,507c-3.8,0-6.8-3-6.8-6.8c0-3.7,3.1-6.8,6.8-6.8c3.8,0,6.8,3,6.8,6.8C656.8,503.9,653.7,507,650,507z
				 M650,495.5c-2.6,0-4.7,2.1-4.7,4.7s2.1,4.7,4.7,4.7c2.6,0,4.7-2.1,4.7-4.7S652.6,495.5,650,495.5z"/>
		</g>
	</g>
	<g class="st6">
		<g>
			<rect x="58.4" y="240.5" class="st2" width="2" height="4"/>
			
				<rect x="67.1" y="243.9" transform="matrix(0.3448 -0.9387 0.9387 0.3448 -184.5594 225.3027)" class="st2" width="4" height="2"/>
			
				<rect x="75.5" y="249.3" transform="matrix(0.6461 -0.7633 0.7633 0.6461 -163.5999 147.7187)" class="st2" width="4" height="2"/>
			
				<rect x="81.4" y="257.3" transform="matrix(0.8677 -0.4971 0.4971 0.8677 -117.3536 75.6354)" class="st2" width="4" height="2"/>
			<rect x="84.2" y="266.8" transform="matrix(0.985 -0.1724 0.1724 0.985 -44.8758 18.8736)" class="st2" width="4" height="2"/>
			
				<rect x="35.8" y="290.5" transform="matrix(0.6461 -0.7633 0.7633 0.6461 -209.1301 132.0052)" class="st2" width="4" height="2"/>
			
				<rect x="29.9" y="282.6" transform="matrix(0.8677 -0.4971 0.4971 0.8677 -136.7438 53.3846)" class="st2" width="4" height="2"/>
			<rect x="27.1" y="273.1" transform="matrix(0.9849 -0.1729 0.1729 0.9849 -46.9517 9.1618)" class="st2" width="4" height="2"/>
			
				<rect x="28.7" y="262.2" transform="matrix(0.1718 -0.9851 0.9851 0.1718 -235.6782 248.0465)" class="st2" width="2" height="4"/>
			
				<rect x="32.7" y="253.1" transform="matrix(0.4963 -0.8681 0.8681 0.4963 -204.525 157.7109)" class="st2" width="2" height="4"/>
			<rect x="39.6" y="246" transform="matrix(0.763 -0.6464 0.6464 0.763 -150.6668 85.025)" class="st2" width="2" height="4"/>
			<rect x="48.5" y="241.6" transform="matrix(0.9386 -0.3451 0.3451 0.9386 -81.0297 32.0483)" class="st2" width="2" height="4"/>
		</g>
		<g>
			<path class="st2" d="M68.1,306.5h-2v-7.7h10.6c2.8,0,5-2.2,5-5V284h4.5l-6.5-11.2v-0.3c0-0.3,0-0.6,0-1
				c0-11.7-9.6-21.2-21.4-21.2s-21.4,9.5-21.4,21.2c0,5.7,2.2,11,6.3,15l0.3,0.3v19.6h-2v-18.8c-4.2-4.4-6.6-10.1-6.6-16.1
				c0-12.8,10.5-23.3,23.5-23.3c12.9,0,23.5,10.4,23.5,23.3c0,0.3,0,0.5,0,0.8l8,13.7h-6v7.8c0,3.9-3.2,7-7.1,7h-8.6L68.1,306.5
				L68.1,306.5z"/>
		</g>
		<g>
			<path class="st2" d="M58.5,289.8c-10,0-18.1-8.1-18.1-18s8.1-18,18.1-18v2c-8.9,0-16.1,7.2-16.1,15.9c0,8.8,7.2,15.9,16.1,15.9
				s16.1-7.2,16.1-15.9h2C76.6,281.7,68.5,289.8,58.5,289.8z"/>
			<g>
				<path class="st2" d="M76.6,271.8h-2c0-0.3,0-0.6,0-1l2-0.1C76.6,271.1,76.6,271.4,76.6,271.8z"/>
				<path class="st2" d="M74.4,269.1c-0.1-0.6-0.2-1.2-0.4-1.7l1.9-0.6c0.2,0.6,0.3,1.3,0.5,2L74.4,269.1z M73.4,265.6
					c-0.2-0.5-0.5-1.1-0.8-1.6l1.8-1c0.3,0.6,0.6,1.2,0.9,1.8L73.4,265.6z M71.6,262.5c-0.3-0.5-0.7-0.9-1.1-1.4l1.5-1.4
					c0.5,0.5,0.9,1,1.3,1.6L71.6,262.5z M69.2,259.9c-0.4-0.4-0.9-0.8-1.4-1.1l1.2-1.7c0.5,0.4,1.1,0.8,1.6,1.2L69.2,259.9z
					 M66.3,257.8c-0.5-0.3-1.1-0.5-1.6-0.8l0.8-1.9c0.6,0.3,1.2,0.5,1.8,0.9L66.3,257.8z M63,256.5c-0.6-0.2-1.2-0.3-1.7-0.4l0.3-2
					c0.7,0.1,1.3,0.3,2,0.4L63,256.5z"/>
				<path class="st2" d="M59.5,255.9c-0.3,0-0.6,0-1,0v-2c0.4,0,0.7,0,1.1,0L59.5,255.9z"/>
			</g>
			<g>
				<path class="st2" d="M58.5,284.2v-2c5.8,0,10.5-4.7,10.5-10.4c0-5.7-4.7-10.4-10.5-10.4S48,266.1,48,271.8h-2
					c0-6.9,5.6-12.4,12.5-12.4S71,265,71,271.8C71,278.7,65.4,284.2,58.5,284.2z"/>
				<g>
					<path class="st2" d="M46,272.9c0-0.4,0-0.7,0-1.1h2c0,0.3,0,0.6,0,0.9L46,272.9z"/>
					<path class="st2" d="M55,283.7c-0.8-0.2-1.6-0.5-2.3-0.9l0.9-1.8c0.6,0.3,1.3,0.6,1.9,0.8L55,283.7z M50.6,281.4
						c-0.6-0.5-1.2-1.1-1.8-1.7l1.6-1.3c0.4,0.5,0.9,1,1.5,1.5L50.6,281.4z M47.4,277.6c-0.4-0.7-0.7-1.5-0.9-2.3l1.9-0.6
						c0.2,0.7,0.5,1.3,0.8,1.9L47.4,277.6z"/>
					<path class="st2" d="M58.5,284.2c-0.4,0-0.7,0-1.1,0l0.2-2c0.3,0,0.6,0,0.9,0C58.5,282.2,58.5,284.2,58.5,284.2z"/>
				</g>
			</g>
			<path class="st2" d="M58.5,278.7c-3.8,0-6.9-3.1-6.9-6.9s3.1-6.9,6.9-6.9c3.8,0,6.9,3.1,6.9,6.9S62.3,278.7,58.5,278.7z
				 M58.5,266.9c-2.7,0-4.9,2.2-4.9,4.9c0,2.7,2.2,4.9,4.9,4.9s4.9-2.2,4.9-4.9S61.2,266.9,58.5,266.9z"/>
		</g>
	</g>
	<g class="st6">
		<g>
			<path class="st2" d="M214.9,476.9c-3.4,0-6.2-2.8-6.2-6.2s2.8-6.2,6.2-6.2s6.2,2.8,6.2,6.2S218.3,476.9,214.9,476.9z
				 M214.9,466.6c-2.3,0-4.1,1.9-4.1,4.1s1.9,4.1,4.1,4.1c2.3,0,4.1-1.9,4.1-4.1S217.2,466.6,214.9,466.6z"/>
		</g>
		<g>
			<g>
				<rect x="233.5" y="511.9" class="st2" width="2.1" height="18.6"/>
			</g>
			<g>
				<path class="st2" d="M234.5,483.1c-2.8,0-5.2-2.3-5.2-5.2s2.3-5.2,5.2-5.2c2.8,0,5.2,2.3,5.2,5.2S237.4,483.1,234.5,483.1z
					 M234.5,474.8c-1.7,0-3.1,1.4-3.1,3.1s1.4,3.1,3.1,3.1c1.7,0,3.1-1.4,3.1-3.1S236.2,474.8,234.5,474.8z"/>
			</g>
			<g>
				<polygon class="st2" points="229.4,530.5 227.3,530.5 227.3,509.9 225.2,509.9 225.2,507.8 229.4,507.8 				"/>
			</g>
			<g>
				<path class="st2" d="M241.8,530.5h-2.1v-22.7h4.1v-16.5c0-2.3-1.9-4.1-4.1-4.1h-10.3v-2.1h10.3c3.4,0,6.2,2.8,6.2,6.2v18.6h-4.1
					L241.8,530.5L241.8,530.5z"/>
			</g>
			<g>
				<rect x="233.5" y="489.2" class="st2" width="2.1" height="2.1"/>
			</g>
		</g>
		<g>
			<g>
				<rect x="194.3" y="511.9" class="st2" width="2.1" height="18.6"/>
			</g>
			<g>
				<polygon class="st2" points="202.6,530.5 200.5,530.5 200.5,507.8 204.6,507.8 204.6,509.9 202.6,509.9 				"/>
			</g>
			<g>
				<path class="st2" d="M190.2,530.5h-2.1v-20.6H184v-18.6c0-3.4,2.8-6.2,6.2-6.2h10.3v2.1h-10.3c-2.3,0-4.1,1.9-4.1,4.1v16.5h4.1
					V530.5z"/>
			</g>
			<g>
				<rect x="194.3" y="489.2" class="st2" width="2.1" height="2.1"/>
			</g>
			<g>
				<path class="st2" d="M195.3,483.1c-2.8,0-5.2-2.3-5.2-5.2s2.3-5.2,5.2-5.2c2.8,0,5.2,2.3,5.2,5.2S198.2,483.1,195.3,483.1z
					 M195.3,474.8c-1.7,0-3.1,1.4-3.1,3.1s1.4,3.1,3.1,3.1c1.7,0,3.1-1.4,3.1-3.1S197,474.8,195.3,474.8z"/>
			</g>
		</g>
		<g>
			<path class="st2" d="M223.2,530.5h-2.1v-26.8h4.1v-17.5c0-2.8-2.3-5.2-5.2-5.2h-10.3c-2.8,0-5.2,2.3-5.2,5.2v17.5h4.1v26.8h-2.1
				v-24.8h-4.1v-19.6c0-4,3.2-7.2,7.2-7.2h10.3c4,0,7.2,3.2,7.2,7.2v19.6H223v24.8H223.2z"/>
		</g>
		<g>
			<rect x="213.9" y="507.8" class="st2" width="2.1" height="22.7"/>
		</g>
		<g>
			<path class="st2" d="M214.9,488.2c-0.3,0-0.5-0.1-0.7-0.3l-5.2-5.2c-0.2-0.2-0.3-0.5-0.3-0.7v-4.1h2.1v3.7l4.1,4.1l4.1-4.1v-3.7
				h2.1v4.1c0,0.3-0.1,0.5-0.3,0.7l-5.2,5.2C215.5,488.1,215.2,488.2,214.9,488.2z"/>
		</g>
		<g>
			<rect x="213.9" y="487.2" class="st2" width="2.1" height="7.2"/>
		</g>
		<g>
			<circle class="st2" cx="214.9" cy="494.4" r="2.1"/>
		</g>
	</g>
	<g class="st6">
		<path class="st14" d="M1024.8,155.2l-1.3-1.1l-5.3-4.6c-1.1-1-3-1-4.1,0l-5.3,4.6l-0.9,0.8"/>
		<polyline class="st14" points="994.5,166.6 988.9,171.5 988.8,171.5 988.8,171.5 988.8,171.5 988.8,171.5 988.8,203.6 
			1043.9,203.6 1043.9,171.5 1043.9,171.5 1043.9,171.5 1043.9,171.5 1043.9,171.5 1038.1,166.5 		"/>
		<polyline class="st15" points="994.7,177.4 994.7,155.2 1038.1,155.2 1038.1,178.1 		"/>
		<g>
			<polyline class="st14" points="1044,172.7 1025.1,188.2 1007.5,188.2 988.7,172.7 			"/>
			<g>
				<path class="st14" d="M990.4,203.2l6.1-5.3l4.6-4c0.5-0.5,1.3-1.1,2-1.7l4.6-4"/>
				<path class="st14" d="M1024.9,188.2l4.6,4c0.7,0.6,1.4,1.2,2,1.7l4.6,4l6.6,5.7"/>
			</g>
		</g>
		<polygon class="st15" points="1024.1,169.7 1018.8,169.7 1018.8,164.4 1013.9,164.4 1013.9,169.7 1008.6,169.7 1008.6,174.7 
			1013.9,174.7 1013.9,180 1018.8,180 1018.8,174.7 1024.1,174.7 		"/>
	</g>
</g>
<g id="Document_Flow" class="st6">
	<g>
		<line class="st16" x1="1099.5" y1="343.1" x2="1082.5" y2="343.1"/>
		<line class="st16" x1="1093.5" y1="318.1" x2="1073.5" y2="318.1"/>
		<path class="st16" d="M1084.5,321.1l-5.6,5.6c-0.8,0.8-0.8,2,0,2.8l13.6,13.6"/>
		<path class="st16" d="M1095.5,346.1l4.6,4.6c0.8,0.8,2,0.8,2.8,0l27.2-27.2c0.8-0.8,0.8-2,0-2.8l-16.6-16.6h-12l-14,14"/>
		<polyline class="st16" points="1103.5,307.1 1107.5,311.1 1111.5,307.1 		"/>
		<line class="st16" x1="1101.5" y1="317.1" x2="1112.5" y2="328.1"/>
		<line class="st16" x1="1098.5" y1="320.1" x2="1109.5" y2="331.1"/>
		<line class="st16" x1="1095.5" y1="323.1" x2="1103.5" y2="331.1"/>
		<line class="st16" x1="1085.5" y1="298.1" x2="1105.5" y2="298.1"/>
		<line class="st16" x1="1117.5" y1="344.1" x2="1129.5" y2="344.1"/>
		<line class="st16" x1="1091.5" y1="306.1" x2="1081.5" y2="306.1"/>
		<line class="st16" x1="1079.5" y1="306.1" x2="1077.5" y2="306.1"/>
	</g>
</g>
<g id="Molecule" class="st10">
	<g>
		<path class="st16" d="M1200.4,458.1c2.1-2.8,6.1-3.4,8.9-1.3c2.8,2.1,3.4,6.1,1.3,8.9"/>
		<path class="st16" d="M1186.3,466.9c-3.5,0.5-5.9,3.7-5.4,7.2c0.5,3.5,3.7,5.9,7.2,5.5"/>
		<path class="st16" d="M1198.9,484.9c1.8,3,5.7,4.1,8.7,2.3c3-1.8,4.1-5.6,2.3-8.7"/>
		<path class="st17" d="M1194.4,451.1c0,4.2-3.4,7.6-7.6,7.6c-4.2,0-7.6-3.4-7.6-7.6c0-4.2,3.4-7.6,7.6-7.6
			C1191,443.5,1194.4,446.9,1194.4,451.1"/>
		<circle class="st16" cx="1186.8" cy="451.1" r="7.6"/>
		<path class="st17" d="M1195.3,491.2c0,4.2-3.4,7.6-7.6,7.6c-4.2,0-7.6-3.4-7.6-7.6c0-4.2,3.4-7.6,7.6-7.6
			C1191.9,483.6,1195.3,487,1195.3,491.2"/>
		<circle class="st16" cx="1187.7" cy="491.2" r="7.6"/>
		<path class="st17" d="M1230.4,472.1c0,4.2-3.4,7.6-7.6,7.6c-4.2,0-7.6-3.4-7.6-7.6c0-4.2,3.4-7.6,7.6-7.6
			C1227,464.5,1230.4,467.9,1230.4,472.1"/>
		<circle class="st16" cx="1222.8" cy="472.1" r="7.6"/>
		<circle class="st16" cx="1219" cy="448.9" r="3.7"/>
		<line class="st16" x1="1171.8" y1="457.1" x2="1171.8" y2="463.1"/>
		<line class="st16" x1="1174.8" y1="460.1" x2="1168.8" y2="460.1"/>
		<line class="st16" x1="1187.8" y1="488.1" x2="1187.8" y2="494.1"/>
		<line class="st16" x1="1190.8" y1="491.1" x2="1184.8" y2="491.1"/>
		<line class="st18" x1="1189.7" y1="455.5" x2="1199" y2="471.1"/>
		<line class="st18" x1="1191.3" y1="484.5" x2="1199" y2="471.1"/>
		<line class="st18" x1="1217.9" y1="471.8" x2="1199" y2="471.1"/>
		<path class="st19" d="M1208.2,471.2c0,5.1-4.2,9.3-9.3,9.3c-5.1,0-9.3-4.2-9.3-9.3s4.2-9.3,9.3-9.3
			C1204,461.8,1208.2,466,1208.2,471.2"/>
		<circle class="st16" cx="1198.8" cy="471.2" r="9.3"/>
		<path class="st20" d="M1185.6,448.4c0,0.6-0.5,1.1-1.1,1.1c-0.6,0-1.1-0.5-1.1-1.1s0.5-1.1,1.1-1.1
			C1185.1,447.3,1185.6,447.8,1185.6,448.4"/>
		<path class="st20" d="M1221.4,468.9c0,0.6-0.5,1.1-1.1,1.1c-0.6,0-1.1-0.5-1.1-1.1s0.5-1.1,1.1-1.1
			C1220.9,467.8,1221.4,468.3,1221.4,468.9"/>
		<path class="st20" d="M1196.2,467c0,0.6-0.5,1.1-1.1,1.1c-0.6,0-1.1-0.5-1.1-1.1s0.5-1.1,1.1-1.1
			C1195.7,465.9,1196.2,466.4,1196.2,467"/>
	</g>
</g>
<g id="Education_2" class="st6">
	<g>
		<line class="st16" x1="652.4" y1="69.4" x2="652.4" y2="75.4"/>
		<line class="st16" x1="655.4" y1="72.4" x2="649.4" y2="72.4"/>
		<line class="st16" x1="606.4" y1="76.4" x2="606.4" y2="82.4"/>
		<g>
			<line class="st16" x1="609.4" y1="79.4" x2="603.4" y2="79.4"/>
			<line class="st16" x1="658.4" y1="104.4" x2="658.4" y2="96.4"/>
			<path class="st16" d="M660.4,106.4l-27.6,12.9c-0.7,0.3-1.5,0.3-2.1,0L607,108.5"/>
			<path class="st16" d="M645.1,85.8l14.7,6.6c1.5,0.7,1.5,2.8,0,3.5l-27.5,12.4c-0.8,0.3-1.6,0.3-2.4,0l-20.1-9.1
				c-1.3-0.6-2.5,0.3-2.5,1.6v4.5"/>
			<path class="st16" d="M607,108.8c-2.1-0.9-3.6-2.6-3.6-4.9v-4c0-2.1,1.4-4.1,3.2-4.9l11.6-5.2"/>
			<path class="st16" d="M630.5,72.4c0.3,0.1,0.7,0.2,1,0.2c0.5,0.1,1.1,0,1.9-0.2c0.9-0.2,2-0.4,3.3-0.4c1,0,2,0.1,3.1,0.4
				c2.2,0.6,4,2,5,4c1.6,2.9,1.7,7,0.4,11.3c-1.5,5-5.3,8.8-9.5,9.5c-0.3,0.1-0.7,0.1-1,0.1c-0.9,0-1.9-0.2-2.6-0.5
				c-0.7-0.2-1.4-0.2-2,0c-0.8,0.3-1.7,0.5-2.6,0.5h0c-0.3,0-0.7,0-1-0.1c-4.2-0.7-8-4.6-9.5-9.5c-2.8-9.1,1.2-13.2,5.1-14.9
				c1.4-0.6,2.8-0.9,4.4-0.9"/>
			<path class="st16" d="M619.9,82.7c0-2.8,1-4.6,2.4-5.9 M620.6,86.9c-0.2-0.8-0.4-1.6-0.5-2.3"/>
			<path class="st16" d="M627.3,74.9c2.4,2.4,6.3,2.4,8.8,0"/>
			<path class="st20" d="M637.6,69c-2,3.3-6.3,4.4-6.3,4.4s-1-4.3,1-7.6c2-3.3,6.3-4.4,6.3-4.4S639.6,65.7,637.6,69"/>
			<path class="st16" d="M637.6,69c-2,3.3-6.3,4.4-6.3,4.4s-1-4.3,1-7.6c2-3.3,6.3-4.4,6.3-4.4S639.6,65.7,637.6,69z"/>
			<path class="st16" d="M631.4,76.2c0-2.7-1.1-6.1-4.4-8.8"/>
			<circle class="st16" cx="612.4" cy="65.4" r="3"/>
		</g>
	</g>
</g>
<g id="Mobile_Device" class="st21">
	<pattern  id="SVGID_1_" xlink:href="#New_Pattern_Swatch_10" patternTransform="matrix(1 0 0 1 73.2328 -21.1397)"  class="st21">
	</pattern>
	<path class="st22" d="M125.1,111.6l-0.2-0.2c-1.1-1.2-1.2-2.9-0.3-3.8l4.1-3.9c1.5-1.4,3.6-1.6,4.8-0.4l0.2,0.2
		c1.1,1.2,0.8,3.3-0.7,4.7l-4.1,3.9C127.9,113,126.2,112.8,125.1,111.6"/>
	<pattern  id="SVGID_2_" xlink:href="#New_Pattern_Swatch_10" patternTransform="matrix(1 0 0 1 73.2328 -21.1397)"  class="st21">
	</pattern>
	<path class="st23" d="M125.1,111.6l-0.2-0.2c-1.1-1.2-1.2-2.9-0.3-3.8l4.1-3.9c1.5-1.4,3.6-1.6,4.8-0.4l0.2,0.2
		c1.1,1.2,0.8,3.3-0.7,4.7l-4.1,3.9C127.9,113,126.2,112.8,125.1,111.6z"/>
	<pattern  id="SVGID_3_" xlink:href="#New_Pattern_Swatch_10" patternTransform="matrix(1 0 0 1 73.2328 -21.1397)"  class="st21">
	</pattern>
	<path class="st24" d="M104.1,116.8l-5.4-2l-7.2,22.8c0.4,0.3,0.8,0.7,1.2,1c1.4,1.2,2.6,2.6,3.7,4.1l7,1c1.5-1.7,2.7-2.8,4-4
		c10.2,0.8,15-6.8,16-8C124.4,130.5,104.1,116.8,104.1,116.8"/>
	<pattern  id="SVGID_4_" xlink:href="#New_Pattern_Swatch_10" patternTransform="matrix(1 0 0 1 73.2328 -21.1397)"  class="st21">
	</pattern>
	<path class="st25" d="M104.1,116.8l-5.4-2l-7.2,22.8c0.4,0.3,0.8,0.7,1.2,1c1.4,1.2,2.6,2.6,3.7,4.1l7,1c1.5-1.7,2.7-2.8,4-4
		c10.2,0.8,15-6.8,16-8C124.4,130.5,104.1,116.8,104.1,116.8z"/>
	<pattern  id="SVGID_5_" xlink:href="#New_Pattern_Swatch_10" patternTransform="matrix(1 0 0 1 73.2328 -21.1397)"  class="st21">
	</pattern>
	<path class="st26" d="M124.4,132.7l-18,0c-2.2,0-4-1.8-4-4c0-8.4,0-27.6,0-36c0-2.2,1.8-4,4-4l18,0c2.2,0,4,1.8,4,4
		c0,8.4,0,27.6,0,36C128.4,130.9,126.6,132.7,124.4,132.7"/>
	<pattern  id="SVGID_6_" xlink:href="#New_Pattern_Swatch_10" patternTransform="matrix(1 0 0 1 73.2328 -21.1397)"  class="st21">
	</pattern>
	<path class="st27" d="M124.4,132.7l-18,0c-2.2,0-4-1.8-4-4c0-8.4,0-27.6,0-36c0-2.2,1.8-4,4-4l18,0c2.2,0,4,1.8,4,4
		c0,8.4,0,27.6,0,36C128.4,130.9,126.6,132.7,124.4,132.7z"/>
	<pattern  id="SVGID_7_" xlink:href="#New_Pattern_Swatch_10" patternTransform="matrix(1 0 0 1 73.2328 -21.1397)"  class="st21">
	</pattern>
	<rect x="102.4" y="94.7" class="st28" width="26" height="30"/>
	<pattern  id="SVGID_8_" xlink:href="#New_Pattern_Swatch_10" patternTransform="matrix(1 0 0 1 73.2328 -21.1397)"  class="st21">
	</pattern>
	<rect x="102.4" y="94.7" class="st29" width="26" height="30"/>
	<pattern  id="SVGID_9_" xlink:href="#New_Pattern_Swatch_10" patternTransform="matrix(1 0 0 1 73.2328 -21.1397)"  class="st21">
	</pattern>
	<path class="st30" d="M127.9,131.8l-0.2-0.2c-1.1-1-1.5-2.4-0.9-3.1l2.6-3c0.9-1.1,2.6-1.2,3.8-0.2l0.2,0.2c1.1,1,1.3,2.7,0.3,3.8
		l-2.6,3C130.4,132.9,129,132.7,127.9,131.8"/>
	<pattern  id="SVGID_10_" xlink:href="#New_Pattern_Swatch_10" patternTransform="matrix(1 0 0 1 73.2328 -21.1397)"  class="st21">
	</pattern>
	<path class="st31" d="M127.9,131.8l-0.2-0.2c-1.1-1-1.5-2.4-0.9-3.1l2.6-3c0.9-1.1,2.6-1.2,3.8-0.2l0.2,0.2c1.1,1,1.3,2.7,0.3,3.8
		l-2.6,3C130.4,132.9,129,132.7,127.9,131.8z"/>
	<pattern  id="SVGID_11_" xlink:href="#New_Pattern_Swatch_10" patternTransform="matrix(1 0 0 1 73.2328 -21.1397)"  class="st21">
	</pattern>
	<path class="st32" d="M103,116.6c1-3.1,1.5-5.3,1.8-9c0.2-2.1-0.7-3.9-1.6-5.2c-1-1.3-3.3-1-3.7,0.5c-2.1,6.6-2.4,8.4-3.7,11.7
		c-1.4,3.7-0.6,8.9-1.3,10.4c-0.1,0.3-4.9,6.4-6.2,8.3c1.4,0.7,4.3,2,5.5,3c1.4,1.2,2.8,2.7,3.9,4.2l1.1,0.1l6.3-6.5
		C107.7,126.3,105.4,119.7,103,116.6"/>
	<pattern  id="SVGID_12_" xlink:href="#New_Pattern_Swatch_10" patternTransform="matrix(1 0 0 1 73.2328 -21.1397)"  class="st21">
	</pattern>
	<path class="st33" d="M105,134c2.7-7.8,0.5-14.3-2-17.4c1-3.1,1.5-5.3,1.8-9c0.2-2.1-0.7-3.9-1.6-5.2c-1-1.3-3.3-1-3.7,0.5
		c-2.1,6.6-2.4,8.4-3.7,11.7c-1.4,3.7-0.6,8.9-1.3,10.4c-0.1,0.3-4.9,6.4-6.2,8.3c1.4,0.7,4.3,2,5.5,3c1.4,1.2,2.8,2.7,3.9,4.2
		l1.1,0.1"/>
	<pattern  id="SVGID_13_" xlink:href="#New_Pattern_Swatch_10" patternTransform="matrix(1 0 0 1 73.2328 -21.1397)"  class="st21">
	</pattern>
	<polygon class="st34" points="90,129 84.6,134.4 100,149.8 105.4,144.4 	"/>
	<pattern  id="SVGID_14_" xlink:href="#New_Pattern_Swatch_10" patternTransform="matrix(1 0 0 1 73.2328 -21.1397)"  class="st21">
	</pattern>
	<polygon class="st35" points="90,129 84.6,134.4 100,149.8 105.4,144.4 	"/>
	<pattern  id="SVGID_15_" xlink:href="#New_Pattern_Swatch_10" patternTransform="matrix(1 0 0 1 73.2328 -21.1397)"  class="st21">
	</pattern>
	<path class="st36" d="M127.9,124.7l-0.2-0.2c-1.1-1-1.6-2.4-0.9-3.1l2.7-3.1c1-1.1,2.7-1.2,3.8-0.2l0.2,0.2c1.1,1,1.3,2.7,0.3,3.8
		l-2.7,3.1C130.5,125.9,129,125.7,127.9,124.7"/>
	<pattern  id="SVGID_16_" xlink:href="#New_Pattern_Swatch_10" patternTransform="matrix(1 0 0 1 73.2328 -21.1397)"  class="st21">
	</pattern>
	<path class="st37" d="M127.9,124.7l-0.2-0.2c-1.1-1-1.6-2.4-0.9-3.1l2.7-3.1c1-1.1,2.7-1.2,3.8-0.2l0.2,0.2c1.1,1,1.3,2.7,0.3,3.8
		l-2.7,3.1C130.5,125.9,129,125.7,127.9,124.7z"/>
	<pattern  id="SVGID_17_" xlink:href="#New_Pattern_Swatch_10" patternTransform="matrix(1 0 0 1 73.2328 -21.1397)"  class="st21">
	</pattern>
	<path class="st38" d="M127.9,117.9l-0.2-0.2c-1.1-1-1.6-2.4-0.9-3.1l2.7-3.1c1-1.1,2.7-1.2,3.8-0.2l0.2,0.2c1.1,1,1.3,2.7,0.3,3.8
		l-2.7,3.1C130.5,119.1,129,118.9,127.9,117.9"/>
	<pattern  id="SVGID_18_" xlink:href="#New_Pattern_Swatch_10" patternTransform="matrix(1 0 0 1 73.2328 -21.1397)"  class="st21">
	</pattern>
	<path class="st39" d="M127.9,117.9l-0.2-0.2c-1.1-1-1.6-2.4-0.9-3.1l2.7-3.1c1-1.1,2.7-1.2,3.8-0.2l0.2,0.2c1.1,1,1.3,2.7,0.3,3.8
		l-2.7,3.1C130.5,119.1,129,118.9,127.9,117.9z"/>
	<pattern  id="SVGID_19_" xlink:href="#New_Pattern_Swatch_10" patternTransform="matrix(1 0 0 1 73.2328 -21.1397)"  class="st21">
	</pattern>
	<line class="st40" x1="112.4" y1="128.7" x2="118.4" y2="128.7"/>
</g>
</svg>
