<?xml version="1.0" encoding="utf-8"?>
<!-- Generator: Adobe Illustrator 21.0.2, SVG Export Plug-In . SVG Version: 6.00 Build 0)  -->
<svg version="1.1" xmlns="http://www.w3.org/2000/svg" xmlns:xlink="http://www.w3.org/1999/xlink" x="0px" y="0px"
	 viewBox="0 0 144 144" style="enable-background:new 0 0 144 144;" xml:space="preserve">
<style type="text/css">
	.st0{fill:none;}
	.st1{fill:#6D4F71;}
	.st2{fill:#E2DCE2;}
	.st3{fill:#FFFFFF;}
	.st4{fill:none;stroke:url(#SVGID_1_);stroke-width:3;stroke-miterlimit:10;}
	.st5{fill:url(#);}
	.st6{fill:none;stroke:url(#SVGID_2_);stroke-width:3;stroke-miterlimit:10;}
	.st7{fill:none;stroke:url(#SVGID_3_);stroke-width:3;stroke-miterlimit:10;}
	.st8{fill:none;stroke:url(#SVGID_4_);stroke-width:3;}
	.st9{fill:none;stroke:url(#SVGID_5_);stroke-width:3;}
	.st10{fill:#FFFFFF;stroke:url(#SVGID_6_);stroke-width:3;}
	.st11{fill:none;stroke:#FFFFFF;stroke-width:3;}
	.st12{fill:none;stroke:#292E34;stroke-width:3;}
	.st13{fill:none;stroke:url(#SVGID_7_);stroke-width:3;}
	.st14{fill:none;stroke:url(#SVGID_8_);stroke-width:3;stroke-miterlimit:10;}
	.st15{fill:#CCE4E1;}
	.st16{fill:none;stroke:url(#SVGID_9_);stroke-width:3;stroke-miterlimit:10;}
	.st17{fill:none;stroke:url(#SVGID_10_);stroke-width:3;stroke-miterlimit:10;}
	.st18{fill:none;stroke:url(#SVGID_11_);stroke-width:4;stroke-miterlimit:10;}
	.st19{fill:none;stroke:url(#SVGID_12_);stroke-width:3;stroke-miterlimit:10;}
	.st20{fill:none;stroke:url(#SVGID_13_);stroke-width:3;stroke-linecap:round;stroke-miterlimit:10;}
	.st21{fill:none;stroke:url(#SVGID_14_);stroke-width:3;stroke-miterlimit:10;}
	.st22{fill:none;stroke:url(#SVGID_15_);stroke-width:3;stroke-miterlimit:10;}
	.st23{fill:none;stroke:url(#SVGID_16_);stroke-width:3;stroke-miterlimit:10;}
	.st24{fill:none;stroke:url(#SVGID_17_);stroke-width:3;stroke-miterlimit:10;}
	.st25{fill:none;stroke:url(#SVGID_18_);stroke-width:3;stroke-miterlimit:10;}
	.st26{fill:none;stroke:url(#SVGID_19_);stroke-width:3;}
	.st27{fill:none;stroke:url(#SVGID_20_);stroke-width:3;}
	.st28{fill:#FFFFFF;stroke:url(#SVGID_21_);stroke-width:3;}
	.st29{fill:none;stroke:url(#SVGID_22_);stroke-width:3;}
	.st30{fill:none;stroke:url(#SVGID_23_);stroke-width:3;stroke-miterlimit:10;}
	.st31{fill:none;stroke:url(#SVGID_24_);stroke-width:3;stroke-miterlimit:10;}
	.st32{fill:none;stroke:url(#SVGID_25_);stroke-width:3;stroke-miterlimit:10;}
	.st33{fill:none;stroke:url(#SVGID_26_);stroke-width:4;stroke-miterlimit:10;}
	.st34{fill:none;stroke:url(#SVGID_27_);stroke-width:3;stroke-miterlimit:10;}
	.st35{fill:none;stroke:url(#SVGID_28_);stroke-width:3;stroke-linecap:round;stroke-miterlimit:10;}
	.st36{fill:none;stroke:url(#SVGID_29_);stroke-width:3;stroke-miterlimit:10;}
	.st37{fill:none;stroke:url(#SVGID_30_);stroke-width:3;stroke-miterlimit:10;}
</style>
<pattern  x="-812" width="57" height="57" patternUnits="userSpaceOnUse" id="New_Pattern_Swatch_9" viewBox="0 -57 57 57" style="overflow:visible;">
	<g>
		<rect y="-57" class="st0" width="57" height="57"/>
		<rect y="-57" class="st1" width="57" height="57"/>
	</g>
</pattern>
<g id="Layer_1">
</g>
<g id="Layer_2">
	<g>
		<circle class="st2" cx="72.1" cy="72" r="67.5"/>
		<path class="st15" d="M105.3,73c0-8-15.4-14.5-34.4-14.5S36.5,65,36.5,73v28.7c2.1,6.5,17.5,12.9,36.4,12.9
			c18.9,0,30.6-8.9,32.2-12.9C105.2,98.3,105.3,76.4,105.3,73"/>
		<pattern  id="SVGID_1_" xlink:href="#New_Pattern_Swatch_9" patternTransform="matrix(2.1457 0 0 2.1457 7716.2227 8863.6211)">
		</pattern>
		<path class="st4" d="M105.3,73c0-8-15.4-14.5-34.4-14.5S36.5,65,36.5,73v28.7c2.1,6.5,17.5,12.9,36.4,12.9
			c18.9,0,30.6-8.9,32.2-12.9C105.2,98.3,105.3,76.4,105.3,73z"/>
		<pattern  id="SVGID_2_" xlink:href="#New_Pattern_Swatch_9" patternTransform="matrix(2.1457 0 0 2.1457 7716.2227 8863.6211)">
		</pattern>
		<line style="fill:none;stroke:url(#SVGID_2_);stroke-width:4;stroke-miterlimit:10;" x1="45.1" y1="76" x2="45.1" y2="101.7"/>
		<path class="st3" d="M75.6,42.1c-2.1-0.7-4.5-0.7-6.6,0L4.4,60.8v6.7l64.9,19.8c1.8,0.6,3.8,0.6,5.7,0l62.5-19.8v-6.7L75.6,42.1z"
			/>
		<pattern  id="SVGID_3_" xlink:href="#New_Pattern_Swatch_9" patternTransform="matrix(2.1457 0 0 2.1457 7716.2227 8863.6211)">
		</pattern>
		<path class="st7" d="M127.4,70.9l10-3.4v-6.7L75.6,42.1c-2.1-0.7-4.5-0.7-6.6,0L4.4,60.8v6.7l64.9,19.8c1.8,0.6,3.8,0.6,5.7,0
			l43.3-13.7"/>
		<pattern  id="SVGID_4_" xlink:href="#New_Pattern_Swatch_9" patternTransform="matrix(2.1457 0 0 2.1457 7716.2227 8863.6211)">
		</pattern>
		<path style="fill:none;stroke:url(#SVGID_4_);stroke-width:3;stroke-linecap:round;stroke-miterlimit:10;" d="M72.8,60.2l44.6,13
			c2.9,0.7,5,3.7,5,7.1l-0.1,17.2"/>
		<path class="st3" d="M131,123.2l-6.4-21.5h-4.3l-6.4,21.5c-0.6,2.2,2,4.3,4.3,4.3h8.6C128.9,127.4,131.5,125.4,131,123.2"/>
		<pattern  id="SVGID_5_" xlink:href="#New_Pattern_Swatch_9" patternTransform="matrix(2.1457 0 0 2.1457 7716.2227 8863.6211)">
		</pattern>
		<path style="fill:none;stroke:url(#SVGID_5_);stroke-width:3;stroke-miterlimit:10;" d="M131,123.2l-6.4-21.5h-4.3l-6.4,21.5
			c-0.6,2.2,2,4.3,4.3,4.3h8.6C128.9,127.4,131.5,125.4,131,123.2z"/>
		<path class="st15" d="M128.8,97.4c0,3.6-2.9,6.4-6.5,6.4c-3.6,0-6.4-2.9-6.4-6.4c0-3.6,2.9-6.4,6.5-6.4
			C126,91,128.8,93.9,128.8,97.4"/>
		<pattern  id="SVGID_6_" xlink:href="#New_Pattern_Swatch_9" patternTransform="matrix(2.1457 0 0 2.1457 7716.2227 8863.6211)">
		</pattern>
		<path style="fill:none;stroke:url(#SVGID_6_);stroke-width:3;stroke-miterlimit:10;" d="M128.8,97.4c0,3.6-2.9,6.4-6.5,6.4
			c-3.6,0-6.4-2.9-6.4-6.4c0-3.6,2.9-6.4,6.5-6.4C126,91,128.8,93.9,128.8,97.4z"/>
	</g>
</g>
</svg>
