<?xml version="1.0" encoding="utf-8"?>
<!-- Generator: Adobe Illustrator 21.0.2, SVG Export Plug-In . SVG Version: 6.00 Build 0)  -->
<svg version="1.1" id="Layer_1" xmlns="http://www.w3.org/2000/svg" xmlns:xlink="http://www.w3.org/1999/xlink" x="0px" y="0px"
	 viewBox="0 0 216 216" style="enable-background:new 0 0 216 216;" xml:space="preserve">
<style type="text/css">
	.st0{fill:none;}
	.st1{fill:#FDE3E2;}
	.st2{fill:#6C4F70;}
	.st3{fill:#B3E0DC;}
	.st4{clip-path:url(#SVGID_2_);fill:url(#SVGID_3_);}
	.st5{clip-path:url(#SVGID_2_);fill:#CCE4E1;}
	.st6{clip-path:url(#SVGID_2_);fill:#F0F9F8;}
	.st7{clip-path:url(#SVGID_2_);fill:none;stroke:#2A5183;stroke-width:4.021;stroke-miterlimit:10;}
	.st8{clip-path:url(#SVGID_2_);fill:url(#);}
	.st9{clip-path:url(#SVGID_2_);fill:none;stroke:url(#SVGID_4_);stroke-width:4.021;stroke-miterlimit:10;}
	.st10{clip-path:url(#SVGID_2_);fill:#FFFFFF;}
	.st11{clip-path:url(#SVGID_2_);fill:none;stroke:url(#SVGID_5_);stroke-width:4.021;stroke-miterlimit:10;}
	.st12{clip-path:url(#SVGID_2_);fill:none;stroke:url(#SVGID_6_);stroke-width:4.021;stroke-miterlimit:10;}
	.st13{clip-path:url(#SVGID_2_);fill:none;stroke:url(#SVGID_7_);stroke-width:4.021;stroke-miterlimit:10;}
	.st14{clip-path:url(#SVGID_2_);fill:none;stroke:url(#SVGID_8_);stroke-width:4.021;stroke-miterlimit:10;}
	.st15{clip-path:url(#SVGID_2_);fill:none;stroke:url(#SVGID_9_);stroke-width:4.021;stroke-miterlimit:10;}
	.st16{clip-path:url(#SVGID_2_);fill:none;stroke:url(#SVGID_10_);stroke-width:4.021;stroke-miterlimit:10;}
	.st17{clip-path:url(#SVGID_2_);fill:none;stroke:url(#SVGID_11_);stroke-width:4.021;stroke-miterlimit:10;}
	.st18{clip-path:url(#SVGID_2_);fill:none;stroke:url(#SVGID_12_);stroke-width:4.021;stroke-miterlimit:10;}
	.st19{clip-path:url(#SVGID_2_);fill:none;stroke:url(#SVGID_13_);stroke-width:4.021;stroke-miterlimit:10;}
	.st20{clip-path:url(#SVGID_2_);fill:none;stroke:url(#SVGID_14_);stroke-width:4.021;stroke-miterlimit:10;}
	.st21{clip-path:url(#SVGID_2_);fill:none;stroke:url(#SVGID_15_);stroke-width:4.021;stroke-miterlimit:10;}
	.st22{clip-path:url(#SVGID_2_);fill:none;stroke:url(#SVGID_16_);stroke-width:4.021;stroke-miterlimit:10;}
	.st23{clip-path:url(#SVGID_2_);fill:none;stroke:url(#SVGID_17_);stroke-width:4.021;stroke-miterlimit:10;}
	.st24{clip-path:url(#SVGID_19_);fill:url(#SVGID_20_);}
	.st25{clip-path:url(#SVGID_19_);fill:url(#SVGID_21_);}
	.st26{clip-path:url(#SVGID_19_);fill:#FFFFFF;}
	.st27{clip-path:url(#SVGID_19_);fill:#F0F9F8;}
	.st28{clip-path:url(#SVGID_19_);fill:#D9EFEF;}
	.st29{clip-path:url(#SVGID_19_);fill:none;stroke:url(#SVGID_22_);stroke-width:6.192;stroke-miterlimit:10;}
	.st30{clip-path:url(#SVGID_19_);fill:none;stroke:url(#SVGID_23_);stroke-width:6.192;stroke-miterlimit:10;}
	.st31{clip-path:url(#SVGID_19_);fill:none;stroke:url(#SVGID_24_);stroke-width:6.192;stroke-miterlimit:10;}
	.st32{clip-path:url(#SVGID_19_);fill:none;stroke:url(#SVGID_25_);stroke-width:6.192;stroke-miterlimit:10;}
	.st33{clip-path:url(#SVGID_19_);fill:none;stroke:url(#SVGID_26_);stroke-width:6.192;stroke-miterlimit:10;}
	.st34{clip-path:url(#SVGID_19_);fill:none;stroke:url(#SVGID_27_);stroke-width:6.192;stroke-miterlimit:10;}
	.st35{clip-path:url(#SVGID_19_);fill:none;stroke:url(#SVGID_28_);stroke-width:6.192;stroke-miterlimit:10;}
	.st36{clip-path:url(#SVGID_19_);fill:none;stroke:url(#SVGID_29_);stroke-width:6.192;stroke-miterlimit:10;}
	.st37{clip-path:url(#SVGID_19_);fill:none;stroke:url(#SVGID_30_);stroke-width:6.192;stroke-miterlimit:10;}
	.st38{clip-path:url(#SVGID_19_);fill:none;stroke:url(#SVGID_31_);stroke-width:6.192;stroke-miterlimit:10;}
	.st39{clip-path:url(#SVGID_19_);fill:none;stroke:url(#SVGID_32_);stroke-width:6.192;stroke-miterlimit:10;}
	.st40{clip-path:url(#SVGID_19_);fill:none;stroke:url(#SVGID_33_);stroke-width:6.192;stroke-miterlimit:10;}
	.st41{clip-path:url(#SVGID_19_);fill:none;stroke:url(#SVGID_34_);stroke-width:6.192;stroke-miterlimit:10;}
	.st42{clip-path:url(#SVGID_19_);fill:none;stroke:url(#SVGID_35_);stroke-width:6.192;stroke-miterlimit:10;}
	.st43{clip-path:url(#SVGID_19_);fill:none;stroke:url(#SVGID_36_);stroke-width:6.192;stroke-miterlimit:10;}
	.st44{clip-path:url(#SVGID_19_);fill:none;stroke:url(#SVGID_37_);stroke-width:6.192;stroke-miterlimit:10;}
	.st45{clip-path:url(#SVGID_39_);fill:url(#SVGID_40_);}
	.st46{clip-path:url(#SVGID_39_);fill:url(#SVGID_41_);}
	.st47{clip-path:url(#SVGID_39_);fill:#FFFFFF;}
	.st48{clip-path:url(#SVGID_39_);fill:#F0F9F8;}
	.st49{clip-path:url(#SVGID_39_);fill:#D9EFEF;}
	.st50{clip-path:url(#SVGID_39_);fill:none;stroke:url(#SVGID_42_);stroke-width:6.192;stroke-miterlimit:10;}
	.st51{clip-path:url(#SVGID_39_);fill:none;stroke:url(#SVGID_43_);stroke-width:6.192;stroke-miterlimit:10;}
	.st52{clip-path:url(#SVGID_39_);fill:none;stroke:url(#SVGID_44_);stroke-width:6.192;stroke-miterlimit:10;}
	.st53{clip-path:url(#SVGID_39_);fill:none;stroke:url(#SVGID_45_);stroke-width:6.192;stroke-miterlimit:10;}
	.st54{clip-path:url(#SVGID_39_);fill:none;stroke:url(#SVGID_46_);stroke-width:6.192;stroke-miterlimit:10;}
	.st55{clip-path:url(#SVGID_39_);fill:none;stroke:url(#SVGID_47_);stroke-width:6.192;stroke-miterlimit:10;}
	.st56{clip-path:url(#SVGID_39_);fill:none;stroke:url(#SVGID_48_);stroke-width:6.192;stroke-miterlimit:10;}
	.st57{clip-path:url(#SVGID_39_);fill:none;stroke:url(#SVGID_49_);stroke-width:6.192;stroke-miterlimit:10;}
	.st58{clip-path:url(#SVGID_39_);fill:none;stroke:url(#SVGID_50_);stroke-width:6.192;stroke-miterlimit:10;}
	.st59{clip-path:url(#SVGID_39_);fill:none;stroke:url(#SVGID_51_);stroke-width:6.192;stroke-miterlimit:10;}
	.st60{clip-path:url(#SVGID_39_);fill:none;stroke:url(#SVGID_52_);stroke-width:6.192;stroke-miterlimit:10;}
	.st61{clip-path:url(#SVGID_39_);fill:none;stroke:url(#SVGID_53_);stroke-width:6.192;stroke-miterlimit:10;}
	.st62{clip-path:url(#SVGID_39_);fill:none;stroke:url(#SVGID_54_);stroke-width:6.192;stroke-miterlimit:10;}
	.st63{clip-path:url(#SVGID_39_);fill:none;stroke:url(#SVGID_55_);stroke-width:6.192;stroke-miterlimit:10;}
	.st64{clip-path:url(#SVGID_39_);fill:none;stroke:url(#SVGID_56_);stroke-width:6.192;stroke-miterlimit:10;}
	.st65{clip-path:url(#SVGID_39_);fill:none;stroke:url(#SVGID_57_);stroke-width:6.192;stroke-miterlimit:10;}
</style>
<pattern  x="-238.4" width="57" height="57" patternUnits="userSpaceOnUse" id="Unnamed_Pattern" viewBox="0 -57 57 57" style="overflow:visible;">
	<g>
		<rect y="-57" class="st0" width="57" height="57"/>
		<rect y="-57" class="st1" width="57" height="57"/>
	</g>
</pattern>
<pattern  x="-238.4" width="57" height="57" patternUnits="userSpaceOnUse" id="Unnamed_Pattern_19" viewBox="0 -57 57 57" style="overflow:visible;">
	<g>
		<rect y="-57" class="st0" width="57" height="57"/>
		<rect y="-57" class="st2" width="57" height="57"/>
	</g>
</pattern>
<pattern  x="-238.4" width="57" height="57" patternUnits="userSpaceOnUse" id="Unnamed_Pattern_2" viewBox="0 -57 57 57" style="overflow:visible;">
	<g>
		<rect y="-57" class="st0" width="57" height="57"/>
		<rect y="-57" class="st3" width="57" height="57"/>
	</g>
</pattern>
<g id="consents">
	<g>
		<defs>
			<rect id="SVGID_18_" x="14.4" y="8.7" width="187.2" height="198.5"/>
		</defs>
		<clipPath id="SVGID_2_">
			<use xlink:href="#SVGID_18_"  style="overflow:visible;"/>
		</clipPath>
		<pattern  id="SVGID_3_" xlink:href="#Unnamed_Pattern" patternTransform="matrix(3.6001 0 0 -3.6001 17608.9746 21783.7109)">
		</pattern>
		<path class="st4" d="M201.6,102.4c0,51.7-41.9,93.6-93.6,93.6s-93.6-41.9-93.6-93.6c0-51.7,41.9-93.6,93.6-93.6
			C159.7,8.7,201.6,50.7,201.6,102.4"/>
		<pattern  id="SVGID_4_" xlink:href="#Unnamed_Pattern_2" patternTransform="matrix(3.0962 0 0 -3.0962 13814.2402 17674.7617)">
		</pattern>
		<path style="clip-path:url(#SVGID_2_);fill:url(#SVGID_4_);" d="M43,154.6c-6.9,0-15.5-8.6-15.5-15.5v-24.8
			c0-12.9,12.1-21.7,21.7-21.7h21.7c9.6,0,18.6,8.8,18.6,21.7v18.6v9.3c0,6.9-2.4,12.4-9.3,12.4v52.6H43V154.6z"/>
		<path class="st10" d="M61.6,83.4c8.3,0,15.5-6.7,15.5-15.5v-6.2c0-8.8-7.2-15.5-15.5-15.5s-15.5,6.7-15.5,15.5v6.2
			C46.1,76.7,53.3,83.4,61.6,83.4"/>
		<path class="st6" d="M173,154.6c6.2,0,15.5-8.6,15.5-15.5v-24.8c0-12.9-12.1-21.7-21.7-21.7h-21.7c-9.6,0-18.6,8.8-18.6,21.7v18.6
			v9.3c0,6.9,3.1,12.4,9.3,12.4v52.6H173V154.6z"/>
		<path class="st10" d="M154.4,83.4c-8.3,0-15.5-6.7-15.5-15.5v-6.2c0-8.8,7.2-15.5,15.5-15.5s15.5,6.7,15.5,15.5v6.2
			C169.9,76.7,162.7,83.4,154.4,83.4"/>
		<path style="clip-path:url(#SVGID_2_);fill:#D9EFEF;" d="M61.6,83.4c8.3,0,15.5-6.7,15.5-15.5v-6.2c0-8.8-7.2-15.5-15.5-15.5
			s-15.5,6.7-15.5,15.5v6.2C46.1,76.7,53.3,83.4,61.6,83.4"/>
		<pattern  id="SVGID_5_" xlink:href="#Unnamed_Pattern_19" patternTransform="matrix(3.0962 0 0 -3.0962 13814.2402 17674.7617)">
		</pattern>
		<path style="clip-path:url(#SVGID_2_);fill:none;stroke:url(#SVGID_5_);stroke-width:6.192;stroke-miterlimit:10;" d="M61.6,83.4
			c8.3,0,15.5-6.7,15.5-15.5v-6.2c0-8.8-7.2-15.5-15.5-15.5s-15.5,6.7-15.5,15.5v6.2C46.1,76.7,53.3,83.4,61.6,83.4z"/>
		<path class="st6" d="M154.4,83.4c-8.3,0-15.5-6.7-15.5-15.5v-6.2c0-8.8,7.2-15.5,15.5-15.5s15.5,6.7,15.5,15.5v6.2
			C169.9,76.7,162.7,83.4,154.4,83.4"/>
		<pattern  id="SVGID_6_" xlink:href="#Unnamed_Pattern_19" patternTransform="matrix(3.0962 0 0 -3.0962 13814.2402 17674.7617)">
		</pattern>
		<path style="clip-path:url(#SVGID_2_);fill:none;stroke:url(#SVGID_6_);stroke-width:6.192;stroke-miterlimit:10;" d="M154.4,83.4
			c-8.3,0-15.5-6.7-15.5-15.5v-6.2c0-8.8,7.2-15.5,15.5-15.5s15.5,6.7,15.5,15.5v6.2C169.9,76.7,162.7,83.4,154.4,83.4z"/>
		<pattern  id="SVGID_7_" xlink:href="#Unnamed_Pattern_19" patternTransform="matrix(3.0962 0 0 -3.0962 13814.2402 17674.7617)">
		</pattern>
		
			<line style="clip-path:url(#SVGID_2_);fill:none;stroke:url(#SVGID_7_);stroke-width:6.192;stroke-miterlimit:10;" x1="43" y1="207.3" x2="43" y2="114.4"/>
		<pattern  id="SVGID_8_" xlink:href="#Unnamed_Pattern_19" patternTransform="matrix(3.0962 0 0 -3.0962 13814.2402 17674.7617)">
		</pattern>
		<path style="clip-path:url(#SVGID_2_);fill:none;stroke:url(#SVGID_8_);stroke-width:6.192;stroke-miterlimit:10;" d="M89.4,132.9
			v9.3c0,6.9-2.4,12.4-9.3,12.4v52.6"/>
		<pattern  id="SVGID_9_" xlink:href="#Unnamed_Pattern_19" patternTransform="matrix(3.0962 0 0 -3.0962 13814.2402 17674.7617)">
		</pattern>
		
			<line style="clip-path:url(#SVGID_2_);fill:none;stroke:url(#SVGID_9_);stroke-width:6.192;stroke-miterlimit:10;" x1="61.6" y1="154.6" x2="61.6" y2="207.3"/>
		<pattern  id="SVGID_10_" xlink:href="#Unnamed_Pattern_19" patternTransform="matrix(3.0962 0 0 -3.0962 13814.2402 17674.7617)">
		</pattern>
		
			<line style="clip-path:url(#SVGID_2_);fill:none;stroke:url(#SVGID_10_);stroke-width:6.192;stroke-miterlimit:10;" x1="92.5" y1="123.7" x2="61.6" y2="123.7"/>
		<pattern  id="SVGID_11_" xlink:href="#Unnamed_Pattern_19" patternTransform="matrix(3.0962 0 0 -3.0962 13814.2402 17674.7617)">
		</pattern>
		
			<line style="clip-path:url(#SVGID_2_);fill:none;stroke:url(#SVGID_11_);stroke-width:6.192;stroke-miterlimit:10;" x1="104.9" y1="123.7" x2="98.7" y2="123.7"/>
		<pattern  id="SVGID_12_" xlink:href="#Unnamed_Pattern_19" patternTransform="matrix(3.0962 0 0 -3.0962 13814.2402 17674.7617)">
		</pattern>
		<polyline style="clip-path:url(#SVGID_2_);fill:none;stroke:url(#SVGID_12_);stroke-width:6.192;stroke-miterlimit:10;" points="
			73.9,139.8 57.8,123.7 73.9,107.6 		"/>
		<pattern  id="SVGID_13_" xlink:href="#Unnamed_Pattern_19" patternTransform="matrix(3.0962 0 0 -3.0962 13814.2402 17674.7617)">
		</pattern>
		
			<line style="clip-path:url(#SVGID_2_);fill:none;stroke:url(#SVGID_13_);stroke-width:6.192;stroke-miterlimit:10;" x1="111.1" y1="123.7" x2="117.3" y2="123.7"/>
		<pattern  id="SVGID_14_" xlink:href="#Unnamed_Pattern_19" patternTransform="matrix(3.0962 0 0 -3.0962 13814.2402 17674.7617)">
		</pattern>
		<path style="clip-path:url(#SVGID_2_);fill:none;stroke:url(#SVGID_14_);stroke-width:6.192;stroke-miterlimit:10;" d="
			M89.4,114.4c0-12.9-9-21.7-18.6-21.7H49.2c-9.6,0-21.7,8.8-21.7,21.7v24.8c0,6.9,8.6,15.5,15.5,15.5"/>
		<pattern  id="SVGID_15_" xlink:href="#Unnamed_Pattern_19" patternTransform="matrix(3.0962 0 0 -3.0962 13814.2402 17674.7617)">
		</pattern>
		
			<line style="clip-path:url(#SVGID_2_);fill:none;stroke:url(#SVGID_15_);stroke-width:6.192;stroke-miterlimit:10;" x1="173" y1="207.3" x2="173" y2="114.4"/>
		<pattern  id="SVGID_16_" xlink:href="#Unnamed_Pattern_19" patternTransform="matrix(3.0962 0 0 -3.0962 13814.2402 17674.7617)">
		</pattern>
		<path style="clip-path:url(#SVGID_2_);fill:none;stroke:url(#SVGID_16_);stroke-width:6.192;stroke-miterlimit:10;" d="
			M126.6,132.9v9.3c0,6.9,3.1,12.4,9.3,12.4v52.6"/>
		<pattern  id="SVGID_17_" xlink:href="#Unnamed_Pattern_19" patternTransform="matrix(3.0962 0 0 -3.0962 13814.2402 17674.7617)">
		</pattern>
		
			<line style="clip-path:url(#SVGID_2_);fill:none;stroke:url(#SVGID_17_);stroke-width:6.192;stroke-miterlimit:10;" x1="154.4" y1="154.6" x2="154.4" y2="207.3"/>
		<pattern  id="SVGID_19_" xlink:href="#Unnamed_Pattern_19" patternTransform="matrix(3.0962 0 0 -3.0962 13814.2402 17674.7617)">
		</pattern>
		
			<line style="clip-path:url(#SVGID_2_);fill:none;stroke:url(#SVGID_19_);stroke-width:6.192;stroke-miterlimit:10;" x1="123.5" y1="123.7" x2="154.4" y2="123.7"/>
		<pattern  id="SVGID_20_" xlink:href="#Unnamed_Pattern_19" patternTransform="matrix(3.0962 0 0 -3.0962 13814.2402 17674.7617)">
		</pattern>
		<polyline style="clip-path:url(#SVGID_2_);fill:none;stroke:url(#SVGID_20_);stroke-width:6.192;stroke-miterlimit:10;" points="
			142.1,139.8 158.2,123.7 142.1,107.6 		"/>
		<pattern  id="SVGID_21_" xlink:href="#Unnamed_Pattern_19" patternTransform="matrix(3.0962 0 0 -3.0962 13814.2402 17674.7617)">
		</pattern>
		<path style="clip-path:url(#SVGID_2_);fill:none;stroke:url(#SVGID_21_);stroke-width:6.192;stroke-miterlimit:10;" d="
			M126.6,114.4c0-12.9,9-21.7,18.6-21.7h21.7c9.6,0,21.7,8.8,21.7,21.7v24.8c0,6.9-8.6,15.5-15.5,15.5"/>
	</g>
	<rect x="14.4" y="8.7" class="st0" width="187.2" height="198.5"/>
</g>
</svg>
