<?xml version="1.0" encoding="utf-8"?>
<!-- Generator: Adobe Illustrator 21.0.2, SVG Export Plug-In . SVG Version: 6.00 Build 0)  -->
<svg version="1.1" xmlns="http://www.w3.org/2000/svg" xmlns:xlink="http://www.w3.org/1999/xlink" x="0px" y="0px"
	 viewBox="0 0 144 144" style="enable-background:new 0 0 144 144;" xml:space="preserve">
<style type="text/css">
	.st0{fill:none;}
	.st1{fill:#B3E0DC;}
	.st2{fill:#6D4F71;}
	.st3{fill:#E2DCE2;}
	.st4{fill:#FFFFFF;}
	.st5{fill:none;stroke:url(#SVGID_1_);stroke-width:3;stroke-miterlimit:10;}
	.st6{fill:url(#SVGID_2_);}
	.st7{fill:none;stroke:url(#SVGID_3_);stroke-width:3;stroke-miterlimit:10;}
	.st8{fill:none;stroke:url(#SVGID_4_);stroke-width:3;stroke-miterlimit:10;}
	.st9{fill:none;stroke:url(#SVGID_5_);stroke-width:3;}
	.st10{fill:none;stroke:url(#SVGID_6_);stroke-width:3;}
	.st11{fill:#FFFFFF;stroke:url(#SVGID_7_);stroke-width:3;}
	.st12{fill:url(#SVGID_8_);}
	.st13{fill:none;stroke:#FFFFFF;stroke-width:3;}
	.st14{fill:none;stroke:#292E34;stroke-width:3;}
	.st15{fill:none;stroke:url(#SVGID_9_);stroke-width:3;}
	.st16{fill:none;stroke:url(#SVGID_10_);stroke-width:3;stroke-miterlimit:10;}
	.st17{fill:#CCE4E1;}
	.st18{fill:none;stroke:url(#SVGID_11_);stroke-width:3;stroke-miterlimit:10;}
	.st19{fill:none;stroke:url(#SVGID_12_);stroke-width:3;stroke-miterlimit:10;}
	.st20{fill:none;stroke:url(#SVGID_13_);stroke-width:4;stroke-miterlimit:10;}
	.st21{fill:none;stroke:url(#SVGID_14_);stroke-width:3;stroke-miterlimit:10;}
	.st22{fill:none;stroke:url(#SVGID_15_);stroke-width:3;stroke-linecap:round;stroke-miterlimit:10;}
	.st23{fill:none;stroke:url(#SVGID_16_);stroke-width:3;stroke-miterlimit:10;}
	.st24{fill:none;stroke:url(#SVGID_17_);stroke-width:3;stroke-miterlimit:10;}
	.st25{fill:none;stroke:url(#SVGID_18_);stroke-width:3;stroke-miterlimit:10;}
	.st26{fill:url(#SVGID_19_);}
	.st27{fill:none;stroke:url(#SVGID_20_);stroke-width:3;stroke-miterlimit:10;}
	.st28{fill:none;stroke:url(#SVGID_21_);stroke-width:3;stroke-miterlimit:10;}
	.st29{fill:none;stroke:url(#SVGID_22_);stroke-width:3;}
	.st30{fill:none;stroke:url(#SVGID_23_);stroke-width:3;}
	.st31{fill:#FFFFFF;stroke:url(#SVGID_24_);stroke-width:3;}
	.st32{fill:url(#SVGID_25_);}
	.st33{fill:none;stroke:url(#SVGID_26_);stroke-width:3;}
	.st34{fill:none;stroke:url(#SVGID_27_);stroke-width:3;stroke-miterlimit:10;}
	.st35{fill:none;stroke:url(#SVGID_28_);stroke-width:3;stroke-miterlimit:10;}
	.st36{fill:none;stroke:url(#SVGID_29_);stroke-width:3;stroke-miterlimit:10;}
	.st37{fill:none;stroke:url(#SVGID_30_);stroke-width:4;stroke-miterlimit:10;}
	.st38{fill:none;stroke:url(#SVGID_31_);stroke-width:3;stroke-miterlimit:10;}
	.st39{fill:none;stroke:url(#SVGID_32_);stroke-width:3;stroke-linecap:round;stroke-miterlimit:10;}
	.st40{fill:none;stroke:url(#SVGID_33_);stroke-width:3;stroke-miterlimit:10;}
	.st41{fill:none;stroke:url(#SVGID_34_);stroke-width:3;stroke-miterlimit:10;}
</style>
<pattern  x="-1140" width="57" height="57" patternUnits="userSpaceOnUse" id="New_Pattern_Swatch_10" viewBox="0 -57 57 57" style="overflow:visible;">
	<g>
		<rect y="-57" class="st0" width="57" height="57"/>
		<rect y="-57" class="st1" width="57" height="57"/>
	</g>
</pattern>
<pattern  x="-1140" width="57" height="57" patternUnits="userSpaceOnUse" id="New_Pattern_Swatch_9" viewBox="0 -57 57 57" style="overflow:visible;">
	<g>
		<rect y="-57" class="st0" width="57" height="57"/>
		<rect y="-57" class="st2" width="57" height="57"/>
	</g>
</pattern>
<g id="Layer_1">
</g>
<g id="Layer_2">
	<g>
		<circle class="st3" cx="72" cy="72" r="67.5"/>
		<path class="st4" d="M113.3,80.3c-4,0.9-7.5,3.3-10.2,8.6l-9,4.4l-0.3,0.2c-1-1.1-2.6-1.8-4.6-1.8h-9.6c-1.9,0-7.4-3.3-10.4-3.3
			H57c-3.1,0-7,1-9.1,3c-3.4,3.4-12,11.5-12.9,12.3c5.4,4.7,16.6,15.3,19,17.5c3.3-3.3,4.7-6.5,7.4-6.5h30.1
			c2.5,0,16.2-12.5,18-14.5c1.7-1.9,10.6-13.5,12.7-18.3C120.9,80.1,117.5,79.4,113.3,80.3"/>
		<pattern  id="SVGID_1_" xlink:href="#New_Pattern_Swatch_9" patternTransform="matrix(1.3233 0 0 1.3233 2004.9828 2275.834)">
		</pattern>
		<path class="st5" d="M71.1,103.2h18.1c8.2,0,8.2-11.5,0-11.5h-9.6c-1.9,0-7.4-3.3-10.4-3.3H57c-3,0-7,1-9.1,3
			c-3.4,3.4-12,11.5-12.9,12.3c5.4,4.7,16.6,15.3,19,17.5c3.3-3.3,4.7-6.5,7.4-6.5h30.1c2.5,0,16.2-12.5,18-14.5
			c1.7-1.9,10.6-13.5,12.7-18.3c-1.3-1.8-4.7-2.5-8.9-1.5c-4,0.9-7.5,3.3-10.2,8.6l-9,4.4"/>
		<pattern  id="SVGID_2_" xlink:href="#New_Pattern_Swatch_10" patternTransform="matrix(1.3233 0 0 1.3233 1983.8093 2229.5171)">
		</pattern>
		<polygon class="st6" points="49.8,132.8 61,121.6 36.2,96.8 25,108 		"/>
		<pattern  id="SVGID_3_" xlink:href="#New_Pattern_Swatch_9" patternTransform="matrix(1.3233 0 0 1.3233 2004.9828 2275.834)">
		</pattern>
		<polygon class="st7" points="49.8,132.8 61,121.6 36.2,96.8 25,108 		"/>
		<pattern  id="SVGID_4_" xlink:href="#New_Pattern_Swatch_9" patternTransform="matrix(1.3233 0 0 1.3233 2004.9828 2275.834)">
		</pattern>
		<line class="st8" x1="34.2" y1="106.4" x2="38.5" y2="110.7"/>
		<g>
			<pattern  id="SVGID_5_" xlink:href="#New_Pattern_Swatch_9" patternTransform="matrix(1.3233 0 0 1.3233 2004.9828 2275.834)">
			</pattern>
			<path class="st9" d="M93.1,31.5v39.6c0,6.9-5.6,12.5-12.5,12.5h-2.1C71.6,83.6,66,78,66,71.1V56.5"/>
			<pattern  id="SVGID_6_" xlink:href="#New_Pattern_Swatch_9" patternTransform="matrix(1.3233 0 0 1.3233 2004.9828 2275.834)">
			</pattern>
			<path class="st10" d="M93.2,53.2V30.4c0-4,3.2-7.2,7.2-7.2h1.2c4,0,7.2,3.2,7.2,7.2v23.2"/>
			<pattern  id="SVGID_7_" xlink:href="#New_Pattern_Swatch_9" patternTransform="matrix(1.3233 0 0 1.3233 2004.9828 2275.834)">
			</pattern>
			<circle class="st11" cx="109" cy="61.5" r="8.1"/>
			<pattern  id="SVGID_8_" xlink:href="#New_Pattern_Swatch_10" patternTransform="matrix(1.3233 0 0 1.3233 1983.8093 2229.5171)">
			</pattern>
			<circle class="st12" cx="109" cy="61.5" r="3.9"/>
			<g>
				<path class="st13" d="M55.6,4.8c-4.5,0-8.1,3.6-8.1,8.1v16.9"/>
				<g>
					<path class="st13" d="M77,4.9c4.5,0,8.1,3.6,8.1,8.1v16.9"/>
					<path class="st14" d="M77,4.9c1.1,0,2.2,0.2,3.2,0.7"/>
				</g>
				<pattern  id="SVGID_9_" xlink:href="#New_Pattern_Swatch_9" patternTransform="matrix(1.3233 0 0 1.3233 2004.9828 2275.834)">
				</pattern>
				<path class="st15" d="M85,29.8v12.8c0,8.1-6.5,14.6-14.6,14.6h-8.3c-8.1,0-14.6-6.5-14.6-14.6V29.8"/>
				<path class="st14" d="M55.6,4.8c-1.2,0-2.3,0.2-3.3,0.7"/>
			</g>
		</g>
	</g>
</g>
</svg>
