<?xml version="1.0" encoding="utf-8"?>
<!-- Generator: Adobe Illustrator 21.0.2, SVG Export Plug-In . SVG Version: 6.00 Build 0)  -->
<svg version="1.1" id="Layer_1" xmlns="http://www.w3.org/2000/svg" xmlns:xlink="http://www.w3.org/1999/xlink" x="0px" y="0px"
	 viewBox="0 0 180 47" style="enable-background:new 0 0 180 47;" xml:space="preserve">
<style type="text/css">
	.st0{fill:#6C4E70;}
	.st1{fill:#4FA0A4;}
</style>
<g>
	<path class="st0" d="M10.7,29.2c-0.2,0.5-0.5,0.9-0.9,1.3S9,31.1,8.5,31.3c-0.5,0.2-1,0.3-1.5,0.3c-0.8,0-1.5-0.2-2.2-0.5
		c-0.6-0.3-1.1-0.8-1.5-1.4s-0.7-1.2-0.9-1.9c-0.2-0.7-0.3-1.4-0.3-2.2c0-0.7,0.1-1.5,0.3-2.2c0.2-0.7,0.5-1.4,0.9-1.9
		c0.4-0.6,0.9-1,1.5-1.4c0.6-0.3,1.3-0.5,2.2-0.5c1.1,0,2,0.3,2.7,0.9c0.6,0.6,1.1,1.4,1.3,2.5h1.7c-0.2-1.6-0.8-2.8-1.9-3.6
		c-1-0.8-2.3-1.2-3.8-1.2c-1.1,0-2,0.2-2.8,0.6c-0.8,0.4-1.5,0.9-2.1,1.6s-1,1.5-1.3,2.4c-0.3,0.8-0.4,1.8-0.4,2.8s0.1,2,0.4,2.9
		s0.7,1.7,1.3,2.4c0.6,0.6,1.3,1.2,2.1,1.5C5,32.8,6,33,7,33c1.6,0,2.9-0.5,3.9-1.4c1-1,1.6-2.3,1.9-4h-1.7
		C11.1,28.2,10.9,28.7,10.7,29.2z"/>
	<path class="st0" d="M26.1,20.4c-0.6-0.7-1.3-1.2-2.1-1.6c-0.8-0.4-1.8-0.6-2.8-0.6c-1.1,0-2,0.2-2.8,0.6s-1.5,0.9-2.1,1.6
		s-1,1.5-1.3,2.4s-0.4,1.9-0.4,2.9s0.1,2,0.4,2.9c0.3,0.9,0.7,1.7,1.3,2.4c0.6,0.7,1.3,1.2,2.1,1.6c0.8,0.4,1.8,0.6,2.8,0.6
		c1.1,0,2-0.2,2.8-0.6c0.8-0.4,1.5-0.9,2.1-1.6s1-1.5,1.3-2.4s0.4-1.9,0.4-2.9s-0.1-2-0.4-2.9C27.1,21.8,26.7,21.1,26.1,20.4z
		 M25.8,27.8c-0.2,0.7-0.5,1.4-0.9,1.9c-0.4,0.6-0.9,1-1.5,1.4c-0.6,0.3-1.3,0.5-2.2,0.5c-0.8,0-1.5-0.2-2.2-0.5
		c-0.6-0.3-1.1-0.8-1.5-1.4s-0.7-1.2-0.9-1.9c-0.2-0.7-0.3-1.4-0.3-2.2c0-0.7,0.1-1.5,0.3-2.2c0.2-0.7,0.5-1.4,0.9-1.9
		c0.4-0.6,0.9-1,1.5-1.4c0.6-0.3,1.3-0.5,2.2-0.5c0.8,0,1.5,0.2,2.2,0.5c0.6,0.3,1.1,0.8,1.5,1.4s0.7,1.2,0.9,1.9
		c0.2,0.7,0.3,1.4,0.3,2.2C26.1,26.4,26,27.1,25.8,27.8z"/>
	<path class="st0" d="M40.7,19.6c-0.4-0.5-0.9-0.8-1.6-1.1c-0.7-0.3-1.5-0.4-2.5-0.4s-1.9,0.3-2.8,0.8c-0.8,0.5-1.4,1.2-1.7,2.1H32
		v-2.4h-1.6v14.1h1.7v-8.3c0-0.7,0.1-1.3,0.3-1.9c0.2-0.6,0.5-1.1,0.9-1.5s0.8-0.8,1.4-1c0.5-0.2,1.1-0.4,1.8-0.4s1.3,0.1,1.7,0.3
		c0.5,0.2,0.8,0.5,1.1,0.9s0.5,0.8,0.6,1.3s0.2,1.1,0.2,1.7v8.8h1.7v-9c0-0.8-0.1-1.6-0.2-2.3C41.4,20.7,41.1,20.1,40.7,19.6z"/>
	<path class="st0" d="M54.4,26.1c-0.4-0.3-0.8-0.6-1.3-0.7c-0.5-0.2-1-0.3-1.5-0.4l-2.2-0.6c-0.3-0.1-0.6-0.2-1-0.3
		c-0.3-0.1-0.7-0.3-1-0.4c-0.3-0.2-0.5-0.4-0.7-0.7c-0.2-0.3-0.3-0.6-0.3-1c0-0.5,0.1-0.8,0.3-1.1c0.2-0.3,0.5-0.6,0.8-0.7
		c0.3-0.2,0.7-0.3,1.1-0.4c0.4-0.1,0.8-0.1,1.2-0.1c0.5,0,1,0.1,1.4,0.2s0.8,0.3,1.2,0.6c0.3,0.3,0.6,0.6,0.8,1s0.3,0.8,0.3,1.4h1.7
		c0-0.8-0.2-1.4-0.5-2s-0.6-1-1.1-1.4s-1-0.7-1.6-0.8c-0.6-0.2-1.3-0.3-2-0.3c-0.6,0-1.2,0.1-1.9,0.2c-0.6,0.1-1.2,0.4-1.7,0.7
		c-0.5,0.3-0.9,0.7-1.2,1.2s-0.5,1.1-0.5,1.8c0,0.6,0.1,1.1,0.3,1.5s0.5,0.8,0.8,1c0.4,0.3,0.8,0.5,1.2,0.7c0.5,0.2,1,0.4,1.6,0.5
		l2.2,0.5c0.4,0.1,0.8,0.2,1.1,0.3c0.4,0.1,0.7,0.3,1,0.5s0.5,0.4,0.7,0.7c0.2,0.3,0.3,0.6,0.3,1c0,0.5-0.1,0.9-0.4,1.2
		c-0.2,0.3-0.6,0.6-0.9,0.8c-0.4,0.2-0.8,0.4-1.2,0.5s-0.9,0.1-1.3,0.1c-1.1,0-2.1-0.3-2.9-0.9c-0.8-0.6-1.2-1.5-1.3-2.6h-1.7
		c0.1,1.7,0.7,3,1.8,3.8c1,0.8,2.4,1.2,4,1.2c0.7,0,1.3-0.1,2-0.2c0.7-0.1,1.3-0.4,1.8-0.7c0.5-0.3,1-0.8,1.3-1.3s0.5-1.2,0.5-1.9
		c0-0.6-0.1-1.2-0.4-1.6C55.1,26.8,54.8,26.4,54.4,26.1z"/>
	<path class="st0" d="M69.7,23.2c-0.2-1-0.6-1.8-1.1-2.5s-1.1-1.3-1.9-1.8s-1.8-0.7-2.9-0.7s-2.1,0.2-2.9,0.6c-0.8,0.4-1.5,1-2,1.7
		S58,22,57.8,22.9c-0.2,0.9-0.4,1.8-0.4,2.7c0,1,0.1,1.9,0.4,2.8c0.2,0.9,0.6,1.7,1.1,2.4c0.5,0.7,1.2,1.2,2,1.6s1.8,0.6,2.9,0.6
		c1.8,0,3.2-0.4,4.1-1.3c1-0.9,1.6-2.1,2-3.7h-1.7c-0.3,1.1-0.8,2-1.5,2.6s-1.7,1-2.9,1c-0.8,0-1.5-0.2-2.1-0.5s-1.1-0.8-1.4-1.3
		c-0.4-0.5-0.7-1.1-0.8-1.8c-0.2-0.7-0.3-1.3-0.3-1.9H70C70,25.1,69.9,24.1,69.7,23.2z M59.2,24.6c0.1-0.6,0.2-1.3,0.4-1.9
		s0.5-1.1,0.9-1.6s0.8-0.8,1.4-1.1c0.5-0.3,1.2-0.4,1.9-0.4s1.3,0.1,1.9,0.4c0.5,0.3,1,0.7,1.4,1.1c0.4,0.5,0.7,1,0.9,1.6
		c0.2,0.6,0.3,1.2,0.3,1.9H59.2z"/>
	<path class="st0" d="M82.6,19.6c-0.4-0.5-0.9-0.8-1.6-1.1c-0.7-0.3-1.5-0.4-2.5-0.4s-1.9,0.3-2.8,0.8c-0.8,0.5-1.4,1.2-1.7,2.1
		h-0.1v-2.4h-1.7v14.1h1.7v-8.3c0-0.7,0.1-1.3,0.3-1.9c0.2-0.6,0.5-1.1,0.9-1.5s0.8-0.8,1.4-1c0.5-0.2,1.1-0.4,1.8-0.4
		c0.7,0,1.3,0.1,1.7,0.3c0.5,0.2,0.8,0.5,1.1,0.9c0.3,0.4,0.5,0.8,0.6,1.3s0.2,1.1,0.2,1.7v8.8h1.7v-9c0-0.8-0.1-1.6-0.2-2.3
		C83.3,20.7,83,20.1,82.6,19.6z"/>
	<path class="st0" d="M89.7,14.4H88v4.2h-2.5V20H88v9.6c0,1.2,0.2,2,0.7,2.5c0.5,0.4,1.3,0.7,2.4,0.7c0.3,0,0.5,0,0.8,0s0.5,0,0.8,0
		v-1.4c-0.5,0.1-1,0.1-1.5,0.1c-0.6,0-1-0.2-1.2-0.5s-0.2-0.8-0.2-1.3v-9.5h2.9v-1.4h-2.9v-4.4H89.7z"/>
	<path class="st0" d="M127.1,26.1c-0.4-0.3-0.8-0.6-1.3-0.7c-0.5-0.2-1-0.3-1.5-0.4l-2.3-0.5c-0.3-0.1-0.6-0.2-1-0.3
		c-0.3-0.1-0.7-0.3-1-0.4c-0.3-0.2-0.5-0.4-0.7-0.7c-0.2-0.3-0.3-0.6-0.3-1c0-0.5,0.1-0.8,0.3-1.1c0.2-0.3,0.5-0.6,0.8-0.7
		c0.3-0.2,0.7-0.3,1.1-0.4s0.8-0.1,1.2-0.1c0.5,0,1,0.1,1.4,0.2s0.8,0.3,1.2,0.6c0.3,0.3,0.6,0.6,0.8,1c0.2,0.4,0.3,0.8,0.3,1.4h1.7
		c0-0.8-0.2-1.4-0.5-2s-0.6-1-1.1-1.4s-1-0.7-1.6-0.8c-0.6-0.2-1.3-0.3-2-0.3c-0.6,0-1.2,0.1-1.9,0.2c-0.6,0.1-1.2,0.4-1.7,0.7
		c-0.5,0.3-0.9,0.7-1.2,1.2c-0.3,0.5-0.5,1.1-0.5,1.8c0,0.6,0.1,1.1,0.3,1.5c0.2,0.4,0.5,0.8,0.8,1c0.4,0.3,0.8,0.5,1.2,0.7
		c0.5,0.2,1,0.4,1.6,0.5l2.2,0.5c0.4,0.1,0.8,0.2,1.1,0.3c0.4,0.1,0.7,0.3,1,0.5s0.5,0.4,0.7,0.7c0.2,0.3,0.3,0.6,0.3,1
		c0,0.5-0.1,0.9-0.4,1.2c-0.2,0.3-0.6,0.6-0.9,0.8s-0.8,0.4-1.2,0.5c-0.4,0.1-0.9,0.1-1.3,0.1c-1.1,0-2.1-0.3-2.9-0.9
		s-1.2-1.5-1.3-2.6h-1.7c0.1,1.7,0.7,3,1.8,3.8c1,0.8,2.4,1.2,4,1.2c0.7,0,1.3-0.1,2-0.2c0.7-0.1,1.3-0.4,1.8-0.7s1-0.8,1.3-1.3
		c0.3-0.5,0.5-1.2,0.5-1.9c0-0.6-0.1-1.2-0.4-1.6C127.8,26.8,127.5,26.4,127.1,26.1z"/>
	<path class="st0" d="M141.2,19.6c-0.4-0.5-0.9-0.8-1.6-1.1c-0.7-0.3-1.5-0.4-2.5-0.4s-1.9,0.3-2.8,0.8c-0.8,0.5-1.4,1.2-1.7,2.1
		h-0.1v-7.8h-1.7v19.5h1.7v-8.3c0-0.7,0.1-1.3,0.3-1.9c0.2-0.6,0.5-1.1,0.9-1.5s0.8-0.8,1.4-1c0.5-0.2,1.1-0.4,1.8-0.4
		c0.7,0,1.3,0.1,1.7,0.3c0.5,0.2,0.8,0.5,1.1,0.9c0.3,0.4,0.5,0.8,0.6,1.3s0.2,1.1,0.2,1.7v8.8h1.7v-9c0-0.8-0.1-1.6-0.2-2.3
		C141.8,20.7,141.6,20.1,141.2,19.6z"/>
	<path class="st0" d="M156.2,30.2v-7.5c0-0.9-0.2-1.7-0.5-2.3c-0.3-0.6-0.7-1-1.2-1.4c-0.5-0.3-1-0.5-1.7-0.7
		c-0.6-0.1-1.2-0.2-1.9-0.2c-0.8,0-1.6,0.1-2.2,0.3c-0.7,0.2-1.3,0.5-1.8,0.8c-0.5,0.4-0.9,0.9-1.2,1.5c-0.3,0.6-0.5,1.3-0.5,2.1
		h1.7c0-1.1,0.4-2,1.1-2.5c0.7-0.5,1.6-0.8,2.7-0.8c0.5,0,1,0,1.4,0.1s0.8,0.2,1.2,0.4c0.3,0.2,0.6,0.5,0.8,0.9
		c0.2,0.4,0.3,0.8,0.3,1.4c0,0.4-0.1,0.7-0.1,0.9c-0.1,0.2-0.2,0.4-0.4,0.6c-0.2,0.1-0.4,0.2-0.7,0.3c-0.3,0.1-0.6,0.1-1,0.1
		c-0.9,0.1-1.8,0.2-2.7,0.3c-0.9,0.1-1.7,0.3-2.4,0.6c-0.7,0.3-1.3,0.7-1.7,1.3c-0.4,0.6-0.7,1.3-0.7,2.3c0,0.7,0.1,1.3,0.4,1.8
		c0.2,0.5,0.6,0.9,1,1.3c0.4,0.3,0.9,0.6,1.5,0.7c0.6,0.2,1.2,0.2,1.8,0.2c0.7,0,1.3-0.1,1.8-0.2s0.9-0.3,1.3-0.5
		c0.4-0.2,0.7-0.5,1.1-0.9c0.3-0.4,0.6-0.8,0.9-1.2h0.1c0,0.4,0,0.7,0.1,1c0,0.3,0.1,0.6,0.3,0.8c0.1,0.2,0.3,0.4,0.6,0.5
		c0.3,0.1,0.6,0.2,1,0.2c0.2,0,0.4,0,0.6,0c0.2,0,0.3,0,0.5-0.1v-1.4c-0.2,0.1-0.3,0.1-0.5,0.1C156.5,31.2,156.2,30.9,156.2,30.2z
		 M154.5,27.2c0,0.7-0.1,1.3-0.4,1.9c-0.3,0.5-0.6,1-1.1,1.4c-0.4,0.4-1,0.7-1.6,0.9c-0.6,0.2-1.2,0.3-1.9,0.3
		c-0.4,0-0.8-0.1-1.2-0.2s-0.7-0.3-1-0.6c-0.3-0.2-0.5-0.5-0.7-0.9c-0.2-0.3-0.3-0.7-0.3-1.2c0-0.7,0.2-1.2,0.6-1.6
		c0.4-0.4,0.9-0.7,1.6-0.9c0.6-0.2,1.3-0.3,2.1-0.4c0.8-0.1,1.5-0.2,2.2-0.3c0.2,0,0.5-0.1,0.8-0.2c0.3-0.1,0.5-0.2,0.6-0.4h0.1v2.2
		H154.5z"/>
	<path class="st0" d="M161.3,21.9L161.3,21.9l-0.1-3.3h-1.6v14.1h1.7v-7.5c0-0.7,0.1-1.4,0.4-2.1c0.3-0.6,0.6-1.2,1.1-1.6
		c0.5-0.5,1-0.8,1.6-1s1.3-0.3,2.1-0.3v-1.8c-1.3-0.1-2.4,0.2-3.3,0.8C162.4,19.9,161.7,20.7,161.3,21.9z"/>
	<path class="st0" d="M176.3,30.6c-0.7,0.7-1.7,1-2.9,1c-0.8,0-1.5-0.2-2.1-0.5s-1.1-0.8-1.4-1.3c-0.4-0.5-0.7-1.1-0.8-1.8
		c-0.2-0.7-0.3-1.3-0.3-1.9h10.8c0-1-0.1-1.9-0.3-2.9c-0.2-1-0.6-1.8-1.1-2.5s-1.1-1.3-1.9-1.8s-1.8-0.7-2.9-0.7s-2.1,0.2-2.9,0.6
		s-1.5,1-2,1.7s-0.9,1.5-1.1,2.4c-0.2,0.9-0.4,1.8-0.4,2.7c0,1,0.1,1.9,0.4,2.8c0.2,0.9,0.6,1.7,1.1,2.4c0.5,0.7,1.2,1.2,2,1.6
		c0.8,0.4,1.8,0.6,2.9,0.6c1.8,0,3.2-0.4,4.1-1.3c1-0.9,1.6-2.1,2-3.7h-1.7C177.5,29.1,177,30,176.3,30.6z M169.2,22.8
		c0.2-0.6,0.5-1.1,0.9-1.6s0.8-0.8,1.4-1.1c0.5-0.3,1.2-0.4,1.9-0.4c0.7,0,1.3,0.1,1.9,0.4c0.5,0.3,1,0.7,1.4,1.1
		c0.4,0.5,0.7,1,0.9,1.6c0.2,0.6,0.3,1.2,0.3,1.9h-9.1C168.8,24,169,23.4,169.2,22.8z"/>
</g>
<g>
	<polygon class="st1" points="107.5,31.6 104.5,31.6 104,32.4 107,32.4 	"/>
	<polygon class="st1" points="106.9,32.7 103.8,32.7 103.4,33.4 106.4,33.4 	"/>
	<polygon class="st1" points="106.2,33.8 103.2,33.8 102.8,34.3 105.8,34.3 	"/>
	<polygon class="st1" points="105.5,34.8 102.5,34.8 102.2,35.3 105.2,35.3 	"/>
	<polygon class="st1" points="104.8,35.9 101.8,35.9 101.6,36.3 104.6,36.3 	"/>
	<polygon class="st1" points="101,37.3 104,37.3 104.2,37 101.1,37 	"/>
	<path class="st1" d="M113.3,3.9c-2.4-2.3-5.6-3.5-9.1-3.5c-5,0-9.6,2.9-11.7,7.4L95,9c1.7-3.6,5.3-5.8,9.2-5.8
		c5.8,0,10.1,4.2,10.1,9.9c0,1.1-0.2,2.7-1.2,4.7l-8.5,13.6h3c0,0,7.6-12,8.4-13.5c0.7-1.5,1.2-4,1.2-4.9
		C117.1,9.5,115.8,6.3,113.3,3.9z"/>
	<polygon class="st1" points="103.1,21.6 106.2,21.6 106.7,20.8 103.7,20.8 	"/>
	<polygon class="st1" points="103.8,20.5 106.8,20.5 107.3,19.8 104.3,19.8 	"/>
	<polygon class="st1" points="104.5,19.4 107.5,19.4 107.9,18.8 104.9,18.8 	"/>
	<polygon class="st1" points="105.2,18.3 108.2,18.3 108.5,17.9 105.5,17.9 	"/>
	<polygon class="st1" points="105.8,17.2 108.9,17.2 109.1,16.9 106.1,16.9 	"/>
	<polygon class="st1" points="109.7,15.9 106.7,15.9 106.5,16.1 109.5,16.1 	"/>
	<path class="st1" d="M103.5,26L103.5,26l0.8-1.3l0.6-1l0.6-1l0,0l0,0l0.6-1h-3l-0.3,0.5l0,0L89.2,44.1c-0.7,1.2,0.1,2.6,1.5,2.6
		h21.9l2-3.1h-22L103.5,26z"/>
</g>
</svg>
