<?xml version="1.0" encoding="utf-8"?>
<!-- Generator: Adobe Illustrator 21.0.2, SVG Export Plug-In . SVG Version: 6.00 Build 0)  -->
<svg version="1.1" xmlns="http://www.w3.org/2000/svg" xmlns:xlink="http://www.w3.org/1999/xlink" x="0px" y="0px"
	 viewBox="0 0 144 144" style="enable-background:new 0 0 144 144;" xml:space="preserve">
<style type="text/css">
	.st0{fill:none;}
	.st1{fill:#6D4F71;}
	.st2{fill:#E2DCE2;}
	.st3{fill:#FFFFFF;}
	.st4{fill:none;stroke:url(#SVGID_1_);stroke-width:3;stroke-miterlimit:10;}
	.st5{fill:url(#);}
	.st6{fill:none;stroke:url(#SVGID_2_);stroke-width:3;stroke-miterlimit:10;}
	.st7{fill:none;stroke:url(#SVGID_3_);stroke-width:3;stroke-miterlimit:10;}
	.st8{fill:none;stroke:url(#SVGID_4_);stroke-width:3;}
	.st9{fill:none;stroke:url(#SVGID_5_);stroke-width:3;}
	.st10{fill:#FFFFFF;stroke:url(#SVGID_6_);stroke-width:3;}
	.st11{fill:none;stroke:#FFFFFF;stroke-width:3;}
	.st12{fill:none;stroke:#292E34;stroke-width:3;}
	.st13{fill:none;stroke:url(#SVGID_7_);stroke-width:3;}
	.st14{fill:none;stroke:url(#SVGID_8_);stroke-width:3;stroke-miterlimit:10;}
	.st15{fill:#CCE4E1;}
	.st16{fill:none;stroke:url(#SVGID_9_);stroke-width:3;stroke-miterlimit:10;}
	.st17{fill:none;stroke:url(#SVGID_10_);stroke-width:3;stroke-miterlimit:10;}
	.st18{fill:none;stroke:url(#SVGID_11_);stroke-width:4;stroke-miterlimit:10;}
	.st19{fill:none;stroke:url(#SVGID_12_);stroke-width:3;stroke-miterlimit:10;}
	.st20{fill:none;stroke:url(#SVGID_13_);stroke-width:3;stroke-linecap:round;stroke-miterlimit:10;}
	.st21{fill:none;stroke:url(#SVGID_14_);stroke-width:3;stroke-miterlimit:10;}
	.st22{fill:none;stroke:url(#SVGID_15_);stroke-width:3;stroke-miterlimit:10;}
	.st23{fill:none;stroke:url(#SVGID_16_);stroke-width:3;stroke-miterlimit:10;}
	.st24{fill:none;stroke:url(#SVGID_17_);stroke-width:3;stroke-miterlimit:10;}
	.st25{fill:none;stroke:url(#SVGID_18_);stroke-width:3;stroke-miterlimit:10;}
	.st26{fill:none;stroke:url(#SVGID_19_);stroke-width:3;}
	.st27{fill:none;stroke:url(#SVGID_20_);stroke-width:3;}
	.st28{fill:#FFFFFF;stroke:url(#SVGID_21_);stroke-width:3;}
	.st29{fill:none;stroke:url(#SVGID_22_);stroke-width:3;}
	.st30{fill:none;stroke:url(#SVGID_23_);stroke-width:3;stroke-miterlimit:10;}
	.st31{fill:none;stroke:url(#SVGID_24_);stroke-width:3;stroke-miterlimit:10;}
	.st32{fill:none;stroke:url(#SVGID_25_);stroke-width:3;stroke-miterlimit:10;}
	.st33{fill:none;stroke:url(#SVGID_26_);stroke-width:4;stroke-miterlimit:10;}
	.st34{fill:none;stroke:url(#SVGID_27_);stroke-width:3;stroke-miterlimit:10;}
	.st35{fill:none;stroke:url(#SVGID_28_);stroke-width:3;stroke-linecap:round;stroke-miterlimit:10;}
	.st36{fill:none;stroke:url(#SVGID_29_);stroke-width:3;stroke-miterlimit:10;}
	.st37{fill:none;stroke:url(#SVGID_30_);stroke-width:3;stroke-miterlimit:10;}
</style>
<pattern  x="-976" width="57" height="57" patternUnits="userSpaceOnUse" id="New_Pattern_Swatch_9" viewBox="0 -57 57 57" style="overflow:visible;">
	<g>
		<rect y="-57" class="st0" width="57" height="57"/>
		<rect y="-57" class="st1" width="57" height="57"/>
	</g>
</pattern>
<g id="Layer_1">
</g>
<g id="Layer_2">
	<g>
		<circle class="st2" cx="72" cy="72" r="67.5"/>
		<g>
			<path class="st3" d="M70.4,24.5h31c1.2,8.8,8.5,14.6,17.3,15.8v44.2c0,23.7-42.2,44-48.3,44c-6.1,0-48.3-20.4-48.3-44V40.3
				c8.8-1.2,16-7,17.3-15.8H70.4z"/>
			<pattern  id="SVGID_1_" xlink:href="#New_Pattern_Swatch_9" patternTransform="matrix(2.194 0 0 2.194 8047.7573 9165.7129)">
			</pattern>
			<path class="st4" d="M70.4,24.5h31c1.2,8.8,8.5,14.6,17.3,15.8v44.2c0,23.7-42.2,44-48.3,44c-6.1,0-48.3-20.4-48.3-44V40.3
				c8.8-1.2,16-7,17.3-15.8H70.4z"/>
			<g>
				<path class="st15" d="M100.1,84.7l2.2-2.6c8.1-9.4,8.1-24.5,0-33.9l-0.3-0.4c-8.1-9.4-21.2-9.4-29.3,0l-2.2,2.6l-2.2-2.6
					c-8.1-9.4-21.2-9.4-29.3,0l-0.3,0.4c-8.1,9.4-8.1,24.6,0,33.9l2.2,2.6L70.4,119L100.1,84.7z"/>
			</g>
		</g>
		<g>
			<polygon class="st3" points="99.7,47.9 70.7,76.8 58.7,64.8 49.1,74.4 70.7,96.1 109.3,57.5 			"/>
			<pattern  id="SVGID_2_" xlink:href="#New_Pattern_Swatch_9" patternTransform="matrix(2.194 0 0 2.194 8048.0479 9171.8535)">
			</pattern>
			<polygon class="st6" points="99.7,47.9 70.7,76.8 58.7,64.8 49.1,74.4 70.7,96.1 109.3,57.5 			"/>
		</g>
	</g>
</g>
</svg>
